<?xml version="1.0" encoding="utf-8"?>
<!-- Generator: Adobe Illustrator 25.3.1, SVG Export Plug-In . SVG Version: 6.00 Build 0)  -->
<svg version="1.1" id="Layer_1" xmlns="http://www.w3.org/2000/svg" xmlns:xlink="http://www.w3.org/1999/xlink" x="0px" y="0px"
	 viewBox="0 0 1545 1052" style="enable-background:new 0 0 1545 1052;" xml:space="preserve">
<style type="text/css">
	.st0{fill:none;stroke:#000000;stroke-width:6;}
	.st1{fill:#D6D6D6;stroke:#000000;stroke-width:3.0978;}
	.st2{fill:none;stroke:#000000;}
	.st3{fill:#E9D4BF;stroke:#000000;}
	.st4{fill:#EDBC4D;stroke:#000000;}
	.st5{fill:#E8E8E8;}
	.st6{fill:#161616;}
	.st7{fill:#8036CA;}
	.st8{fill:#FFFFFF;}
	.st9{opacity:0.12;fill:#6D6C6C;enable-background:new    ;}
	.st10{opacity:0.13;fill:#6D6C6C;enable-background:new    ;}
	.st11{opacity:0.1;fill:#6D6C6C;enable-background:new    ;}
	.st12{opacity:0.11;fill:#6D6C6C;enable-background:new    ;}
	.st13{fill:#D6D6D6;}
	.st14{fill:#FFFFFF;stroke:#161616;stroke-width:2;}
	.st15{fill:#161616;stroke:#161616;stroke-width:2;}
	.st16{opacity:0.22;fill:#6D6C6C;enable-background:new    ;}
	.st17{opacity:0.3935;fill:#808080;enable-background:new    ;}
	.st18{opacity:5.000000e-02;fill:#6D6C6C;enable-background:new    ;}
	.st19{opacity:0.14;fill:#6D6C6C;enable-background:new    ;}
	.st20{fill:#C9F0B8;stroke:#000000;}
	.st21{fill:#6397DE;stroke:#000000;}
	.st22{fill:#9074E2;stroke:#000000;}
	.st23{fill:#B1DEF6;stroke:#000000;}
	.st24{fill:#E9BFE2;stroke:#000000;}
</style>
<g id="layer1" transform="translate(-160.15179,-436.66216)">
	<g id="g3327" transform="translate(65.714285,-754.43159)">
		<g id="g4154">
			<g id="g3884">
				<path id="path3878" class="st0" d="M99.6,1557.6c570.1,0,973.6,0,1546.7,0"/>
				<path id="path3880" class="st1" d="M467.9,1289.4h21.6v353.2h-21.6V1289.4z"/>
			</g>
			<path id="path3892" class="st1" d="M1278.1,1289.4h-21.6l2,436.4l19.6-5V1289.4z"/>
			<path id="path3900" class="st2" d="M120.6,1551.1c184.2-17.2,276-137.1,359.9-265.7c0,0,165.9,223.2,393.1,223.2
				s393.1-223.2,393.1-223.2c85,136.7,179.2,262.1,372.6,266"/>
			<g id="g3942">
				<path id="path3914" class="st2" d="M431,1358.8v192.6"/>
				<polyline class="st3" points="400.2,1554.5 431,1554.5 430.5,1358.2 399.7,1397.9 399.7,1557.4 				"/>
				<polyline class="st3" points="368.7,1554.6 399.2,1554.6 399,1398.1 368.4,1432.5 368.4,1560.4 				"/>
				<polyline class="st3" points="337.1,1551.4 337.1,1461.2 367.8,1432.5 367.8,1554.6 338.1,1554.6 				"/>
				<path id="path3922" class="st2" d="M305.8,1484.7v68.2"/>
				<path id="path3924" class="st2" d="M274.5,1505v53.9"/>
				<g id="g3930">
					<path id="path3926" class="st2" d="M243.1,1520v35.9"/>
					<path id="path3928" class="st2" d="M211.8,1532.2v26.4"/>
				</g>
				<path id="path3938" class="st2" d="M181,1540.9v17.8"/>
				<polyline class="st4" points="431.5,1554.6 466.4,1554.6 466.6,1306.6 431,1358.8 431,1551.4 				"/>
			</g>
			<g id="g3954" transform="matrix(-1,0,0,1,748.62932,0)">
				<path id="path3956" class="st2" d="M-566.5,1358.8v192.6"/>
				<path id="path3958" class="st2" d="M-597.8,1400.7v156.7"/>
				<path id="path3960" class="st2" d="M-629.1,1436.4v124"/>
				<path id="path3962" class="st2" d="M-660.5,1465.7v85.7"/>
				<path id="path3964" class="st2" d="M-691.8,1489.6v63.3"/>
				<path id="path3966" class="st2" d="M-723.1,1508.6v50.4"/>
				<g id="g3968">
					<path id="path3970" class="st2" d="M-754.4,1523.5v32.4"/>
					<path id="path3972" class="st2" d="M-785.7,1535.3v23.3"/>
				</g>
				<path id="path3974" class="st2" d="M-816.5,1542.9v15.7"/>
			</g>
			<path id="path3982" class="st2" d="M1218,1340.2v211.2"/>
			<path id="path3984" class="st2" d="M1186.7,1371.1v186.3"/>
			<path id="path3986" class="st2" d="M1155.4,1398.1v162.3"/>
			<path id="path3988" class="st2" d="M1124.1,1421.1v130.4"/>
			<path id="path3990" class="st2" d="M1092.8,1440.8v112.2"/>
			<path id="path3992" class="st2" d="M1061.5,1459.6v99.3"/>
			<path id="path3996" class="st2" d="M1030.2,1474.6v81.3"/>
			<path id="path3998" class="st2" d="M998.9,1486.8v71.8"/>
			<path id="path4000" class="st2" d="M968.1,1495.4v63.2"/>
			<path id="path4002" class="st2" d="M1218,1340.2v211.2"/>
			<path id="path4031" class="st2" d="M528.6,1340.2v211.2"/>
			<path id="path4033" class="st2" d="M559.9,1371.1v186.3"/>
			<path id="path4035" class="st2" d="M591.2,1398.1v162.3"/>
			<path id="path4037" class="st2" d="M622.5,1421.1v130.4"/>
			<path id="path4039" class="st2" d="M653.8,1440.8v112.2"/>
			<path id="path4041" class="st2" d="M685.1,1459.6v99.3"/>
			<path id="path4043" class="st2" d="M716.4,1474.6v81.3"/>
			<path id="path4045" class="st2" d="M747.7,1486.8v71.8"/>
			<path id="path4047" class="st2" d="M778.5,1495.4v63.2"/>
			<path id="path4049" class="st2" d="M528.6,1340.2v211.2"/>
			<path id="path4061" class="st2" d="M810.1,1503.3v51.3v4"/>
			<path id="path4063" class="st2" d="M841.7,1507v51.7"/>
			<path id="path4065" class="st2" d="M873.3,1508.4v50.2"/>
			<path id="path4067" class="st2" d="M904.9,1507v51.7"/>
			<path id="path4071" class="st2" d="M936.5,1503.3v55.4"/>
		</g>
	</g>
</g>
<g id="Page-1">
	<g id="pixeltrue-chatting-using-apps-1" transform="translate(25.000000, 20.000000)">
		<g id="Group">
			<path id="Path" class="st5" d="M102.4,754.1c68-33.7,146.2-20.3,217.7-7.6c38.1,6.8,76.1,13.1,114.7,16.3
				c41.3,3.5,82.8,4.2,124.2,2.2c80.1-4,158.8-19.8,237.8-32.9c79-13,159.6-23.2,239.6-13.7c77.9,9.3,153.9,42.2,233.3,35.6
				c8.9-0.7,17.7-2,26.5-3.8c1.9-0.4,1.1-3.3-0.8-2.9c-79.9,16.2-158.4-15.8-236.3-28.7c-78-12.9-157.3-5.8-234.9,6.1
				c-80.6,12.3-160.5,29.7-241.9,35.8c-82.1,6.1-163.8,0.3-244.8-14c-69.3-12.3-144.1-28.5-212.9-5c-8.1,2.8-16,6.1-23.7,9.9
				C99.2,752.4,100.7,755,102.4,754.1z"/>
			<path id="Path_1_" class="st5" d="M1043.1,885.8c-3.7-7.8-24.9-58.2-5.6-57c1.1,0.1,1.6-1,1.4-1.9c-2.5-15.6-2.2-31.6,1-47.2
				c1.5-7.2,3.6-14.2,6.3-21c2.4-6.1,8.1-23.4,17.3-15.3c5.6,5,5,15.8,5.6,22.6c0.6,8,0.9,16,0.9,24.1c-0.1,16.2-1.5,32.4-4.2,48.4
				c-1.5,8.5-3.3,17-5.5,25.3c-1.2,4.5-2.5,8.9-3.8,13.3c-1.3,4-2.3,10.1-6.9,11.6c-1.8,0.6-1,3.5,0.8,2.9c6.4-2.2,7.8-9.8,9.5-15.5
				c2.9-9.4,5.3-19,7.3-28.7c3.8-19.2,5.8-38.8,5.8-58.4c0-10.2-0.5-20.4-1.5-30.5c-0.7-6.4-1.2-14.2-7-18.3
				c-13.9-9.8-21.3,17.1-24,25.8c-6.3,19.9-7.7,40.9-4.4,61.5c0.5-0.6,1-1.3,1.4-1.9c-12-0.7-11.7,13.6-10.2,21.6
				c2.6,13.8,7.1,27.2,13.2,39.9C1041.4,889.1,1043.9,887.5,1043.1,885.8L1043.1,885.8z"/>
			<path id="Path_2_" class="st5" d="M1073.3,803.5c-0.3-6.8,0.4-13.6,2.3-20.1c0.9-3.2,2.1-6.3,3.5-9.4c0.7-1.4,1.4-2.8,2.2-4.1
				c0.5-0.7,1.1-1.3,1.6-2c3-3,5.5-2.5,7.4,1.6c-0.3,1.9,2.3,2.7,2.9,0.8c2-6.6,5.9-14.8,13.9-15.2c8.5-0.4,10.8,8.2,11.1,15
				c0.7,13.1-1.6,26.5-5,39.1c-7,25.7-19.9,49.4-32.7,72.7c-0.9,1.7,1.7,3.2,2.6,1.5c15.9-29,32.3-59.1,36.9-92.2
				c1-7.4,1.7-15,1.1-22.5c-0.4-5.2-1.8-11-6.2-14.3c-4.2-3.1-9.9-2.8-14.3-0.4c-5.7,3.2-8.6,9.4-10.4,15.4c1,0.3,1.9,0.5,2.9,0.8
				c0.5-3.4-1.4-6.3-4.9-7.1c-3.8-0.9-7.1,1.6-9.2,4.6c-7.1,9.9-9.3,23.9-8.8,35.7C1070.3,805.4,1073.3,805.4,1073.3,803.5
				L1073.3,803.5z"/>
			<path id="Path_3_" class="st5" d="M1002.7,934.3c43-23.5,94-22,141.1-15.2c51.3,7.4,102.9,21,155,14.5
				c28.9-3.6,58.2-13.5,87.4-6.6c1.9,0.4,2.7-2.4,0.8-2.9c-25.3-6-50.7,0.3-75.7,4.6c-27.1,4.6-54.3,4.2-81.6,0.9
				c-51.2-6.1-101.7-20.3-153.7-17.6c-26,1.3-51.8,7.1-74.8,19.6C999.5,932.6,1001,935.2,1002.7,934.3z"/>
			<path id="Path_4_" class="st5" d="M1134.4,865.4c38.3,3.5,75.5-7.7,112.5-16.1c19.5-4.4,39.3-8.2,59.3-8.4
				c20.9-0.3,41.4,3.9,61.9,7.4c21.8,3.8,43.8,6.6,65.8,2.5c1.9-0.4,1.1-3.2-0.8-2.9c-40.9,7.6-80.9-9.4-121.6-10.1
				c-38.1-0.6-74.8,11.6-111.7,19.3c-21.5,4.5-43.3,7.3-65.3,5.3C1132.5,862.3,1132.5,865.3,1134.4,865.4L1134.4,865.4z"/>
			<path id="Path_5_" class="st5" d="M245.4,732.5c-3.5-3.8-6.6-8.1-8.9-12.8c-1.1-2.3-2.1-4.6-2.8-7.1c-0.6-1.9-1.2-3.9-0.8-5.8
				c0.4-2.2,2.8-7.1,6.3-3.9c1.1,1,2.9,0,2.5-1.5c-5.5-19.8-6.8-39.9-8.2-60.3c-1.4-20.3-2.9-41.1,1.1-61.2c1-4.8,1.7-11.8,7.1-13.5
				c6.7-2.2,11.4,4.9,13.3,10.2c3.4,9.2,5.5,19.2,7.7,28.8c4.7,20.4,7.9,41.1,9.8,61.9c2,22.9,2.3,45.9,1,68.8c-0.1,1.9,2.9,1.9,3,0
				c2.7-46.6-1.5-93.6-12.7-138.9c-1.4-5.6-2.8-11.1-4.4-16.6c-1.3-4.4-2.7-8.9-5.6-12.4c-3.9-4.6-11.3-7.1-16.4-2.9
				c-3,2.5-4,6.7-4.8,10.3c-1.2,5.3-2.1,10.6-2.6,16c-1.2,11.5-1,23.1-0.4,34.7c1.4,25.5,2.5,51.4,9.3,76.1c0.8-0.5,1.7-1,2.5-1.5
				c-5.5-5.1-11.8,1.4-11.5,7.4c0.4,9.7,7.2,19.6,13.5,26.4C244.6,736.1,246.7,734,245.4,732.5L245.4,732.5z"/>
			<path id="Path_6_" class="st5" d="M274.7,646.1c-4.1-9.5-1.8-19.7,0.7-29.3c2.2-8.7,4.4-17.2,4.4-26.2c0.1-10.2-0.6-20.1,2-30.1
				c1.2-4.6,2.9-9,5-13.3c0.9-1.8,2-4.7,3.5-6c4.5-4,6.8,3.4,7.8,6.2c6.8,18.7,8,38.9,8.3,58.6c0.4,20.7-0.2,41.4-1.7,62
				c-1.7,23.7-4.7,47.3-8.8,70.8c-0.3,1.9,2.6,2.7,2.9,0.8c8.3-47,12.1-95,10.3-142.6c-0.4-11-1.3-22.1-3.5-32.9
				c-1-5.3-2.4-10.6-4.1-15.7c-1.2-3.5-2.4-8.3-5.6-10.6c-7-5.1-11.7,7.4-13.6,11.9c-3.9,9.1-5.8,18.8-5.8,28.7
				c0,6.6,0.5,13.2-0.2,19.8c-0.7,6.4-2.6,12.5-4.1,18.7c-2.6,10.3-4.5,20.7-0.2,30.8C272.9,649.3,275.5,647.8,274.7,646.1
				L274.7,646.1z"/>
			<path id="Path_7_" class="st5" d="M139.1,512.8c57-42.5,115.2-85.3,181.3-112.9c32.6-13.6,67.1-23.1,102.4-25.9
				c39-3.1,78.2,2.1,116,11.9c77.2,20.2,147.3,59.2,220.3,90.2c70.7,30.1,144.8,49.8,220.4,62.7c75.7,12.9,152.3,19.6,228.8,25.5
				c9.5,0.7,19,1.5,28.5,2.2c1.9,0.1,1.9-2.9,0-3c-78.3-5.9-156.7-11.9-234.3-24c-76.7-11.9-152.8-29.8-224.9-58.9
				c-73.2-29.5-142.4-68.8-218.1-91.9c-36.8-11.2-75-18.6-113.6-18.6c-35.5,0-70.6,6.8-104,18.4c-67.1,23.4-126.5,64.3-183.3,106.1
				c-7,5.2-14,10.4-21,15.6C136,511.4,137.5,514,139.1,512.8z"/>
			<path id="Path_8_" class="st5" d="M1001.9,537c61.3,1.3,120.5-16.5,179.3-31.5c30.2-7.7,60.6-14.8,91.6-18.1
				c30.9-3.4,62.1-2.6,92.7,3.2c34.6,6.5,67.9,19.1,98.2,36.9c1.7,1,3.2-1.6,1.5-2.6c-52.9-31-114.5-45.8-175.7-41.9
				c-62.4,3.9-121.9,24.4-182.5,38.2c-34.5,7.9-69.7,13.6-105.2,12.9C1000,534,1000,537,1001.9,537L1001.9,537z"/>
			<path id="Path_9_" class="st5" d="M1320.1,744.8c42.8-6.5,86.5-6.7,129.4-0.4c1.9,0.3,2.7-2.6,0.8-2.9
				c-43.5-6.3-87.5-6.1-131,0.4C1317.4,742.2,1318.2,745,1320.1,744.8z"/>
			<path id="Path_10_" class="st5" d="M3.3,653.1c32.3-39.2,67.3-76.2,104.7-110.5c1.4-1.3-0.7-3.4-2.1-2.1
				C68.4,574.8,33.4,611.7,1.2,651C0,652.5,2.1,654.6,3.3,653.1z"/>
			<path id="Path_14_" class="st5" d="M436.6,990.7c-4.5-4.1-8.4-8.7-11.6-13.9c-1.5-2.4-2.9-5-4-7.6c-0.6-1.5-1.6-3.7-1.4-5.4
				c0.3-2.9,3.1-7.3,6.5-4.6c1.3,1.1,3.2-0.2,2.4-1.8c-3.8-7.4-6.1-15.9-5.7-24.3c0.1-1.6,0.3-3.1,0.9-4.6c0.5-1.3,1.2-2.5,2.1-3.6
				c1.8-1.8,3.4-1.8,4.8,0.2c3.7,2.7,5.2,7.9,6.9,12c6.1,14.6,10.6,29.8,13.7,45.3c1-0.3,1.9-0.5,2.9-0.8
				c-2.7-7.5-4.8-15.2-6.1-23.1c-0.9-5.6-2.5-24.2,9-18c7.4,4,8.8,15.9,8.8,23.4c0.1,8.3-1.5,16.4-3.1,24.5
				c-0.4,1.9,2.5,2.7,2.9,0.8c2-10.3,4.1-21,2.8-31.6c-1-7.7-4.4-20-13.7-21.2c-7.4-0.9-10.4,6.6-10.6,12.7
				c-0.4,11.1,3.4,23.1,7.1,33.4c0.7,1.8,3.3,1.1,2.9-0.8c-2.3-11.6-5.5-23.1-9.5-34.2c-1.8-5-3.7-9.9-5.9-14.8
				c-1.6-3.7-3.2-9-7.1-11.1c-6.2-3.4-10.6,3.5-11.6,8.7c-1.8,9.5,1.5,20.4,5.7,28.8l2.4-1.8c-6.1-5.1-12.3,2.2-11.4,8.6
				c1.5,10.2,10.5,20.3,17.7,27.1C435.9,994.1,438,992,436.6,990.7L436.6,990.7z"/>
			<path id="Path_17_" class="st5" d="M1154.1,737.4c-2.9-7.3-4.4-15-4.3-22.9c0-4,0.5-8,1.4-11.9c0.8-3.6,4.8-12.9,9.4-7
				c0.8,1,2.7,0.2,2.6-1.1c-1-8.6-0.8-17.2,0.8-25.7c0.7-3.7,1.7-7.4,3-11c0.8-2.2,1.6-4.6,2.7-6.7c1.6-3,3.4-3.8,6.4-5.3
				c5.4-2.5,5.5-9,6.8-14.2c1.8-7.1,3.9-14.3,8-20.4c2.4-3.6,6.9-9.4,11.8-8.1c3.9,1,5.3,5.2,6,8.8c1.6,7.9,0.5,16.7,0.1,24.7
				c-0.9,17.7-3.2,35.4-6.8,52.7c-4,19-9.7,37.6-16.8,55.7c-0.7,1.8,2.2,2.6,2.9,0.8c14.8-37.4,23.1-77.3,24.1-117.6
				c0.2-7.8,1.2-33.8-14.2-27.8c-6.5,2.6-10.9,10.5-13.5,16.6c-1.5,3.5-2.6,7.1-3.6,10.7c-1.5,5.5-1.5,12.3-6.8,15.5
				c-3.1,1.9-5.1,2.7-6.9,6.3c-2.1,4.1-3.6,8.8-4.8,13.3c-2.7,10.3-3.4,21-2.1,31.6c0.9-0.4,1.7-0.7,2.6-1.1c-2-2.5-5.3-3.1-8.2-1.8
				c-3.9,1.8-5.3,6.3-6.2,10.1c-2.8,12.1-1.6,24.8,2.9,36.4C1151.9,740,1154.8,739.2,1154.1,737.4L1154.1,737.4z"/>
			<path id="Path_18_" class="st5" d="M1125.7,732.2c-4.3-6.7-8.5-13.7-10.7-21.5c-1-3.6-1.6-7.3-1.4-11c0.3-4.1,2-7.3,3.4-11.1
				c2.2-6.1-1.3-11.9-2.7-17.8c-0.7-2.8-4.8-27.7,4-24.3c1.1,0.4,2.1-0.8,1.8-1.8c-2.9-12.9-5.9-26.6-1.8-39.5
				c1.8-5.7,9.1-20.5,16.6-13.7c4.6,4.2,7.2,12,9.3,17.6c9.2,25.3,13.2,53.4,15,80.2c0.1,1.9,3.1,1.9,3,0c-1.2-17.5-3.6-34.9-7.3-52
				c-3.2-15-6.7-31.7-15.4-44.7c-2.7-4-6.6-7.4-11.7-5.3c-5.4,2.2-9.1,8.8-11.2,13.8c-5.9,14.3-2.6,29.9,0.6,44.5
				c0.6-0.6,1.2-1.2,1.8-1.8c-5.3-2.1-8.5,3.9-9.3,8.4c-1.6,10,2.1,19.3,4.4,28.8c1.4,5.8-2.1,9.9-3.1,15.3
				c-0.8,3.8-0.6,7.6,0.1,11.4c1.7,9.5,6.9,18.2,12,26.3C1124.1,735.3,1126.7,733.8,1125.7,732.2L1125.7,732.2z"/>
			<path id="Path_19_" class="st5" d="M1206,681.9c2.7-9.3,5.5-18.6,11.2-26.5c5.5-7.6,11.9-14.8,18-21.9c3.2-3.6,6.4-7.2,9.9-10.5
				c1.8-1.7,3.6-3.5,5.9-4.7c4.5-2.4,7.5,0.7,8.7,4.8c2.7,9.4,0.5,19.6-1.9,28.9c-9.2,35.2-25.2,68.5-46.6,98
				c-1.1,1.6,1.5,3.1,2.6,1.5c19.7-27.1,34.7-57.4,44.3-89.5c2.3-7.7,4.6-15.6,5.4-23.6c0.7-6.5,0.9-15.5-3-21.1
				c-8.2-11.6-25.2,11.5-29.7,16.8c-5.8,6.8-12,13.6-17.1,21c-5.3,7.8-8,16.9-10.6,25.9C1202.5,682.9,1205.4,683.7,1206,681.9
				L1206,681.9z"/>
			<path id="Path_20_" class="st5" d="M1200.2,604.3c-3.8,46.6-13.8,92.4-29.7,136.3c-0.7,1.8,2.2,2.6,2.9,0.8
				c16-44.2,26-90.3,29.8-137.1C1203.3,602.4,1200.3,602.4,1200.2,604.3L1200.2,604.3z"/>
			<path id="Path_21_" class="st5" d="M1173,644.6c5.4,20.3,8.2,41,8.4,62c0,1.9,3,1.9,3,0c-0.2-21.2-3-42.3-8.5-62.8
				C1175.4,641.9,1172.5,642.7,1173,644.6z"/>
			<path id="Path_22_" class="st5" d="M1186.6,621.9c3.5,13.8,5.2,27.9,5.3,42.1c0,1.9,3,1.9,3,0c-0.1-14.5-1.9-28.9-5.4-42.9
				C1189,619.2,1186.1,620,1186.6,621.9L1186.6,621.9z"/>
			<path id="Path_23_" class="st5" d="M1178.1,729.8c7.7-6,14.6-12.9,20.6-20.5c1.2-1.5-0.9-3.6-2.1-2.1
				c-6.1,7.7-12.9,14.5-20.6,20.5C1174.5,728.9,1176.6,731,1178.1,729.8z"/>
			<path id="Path_24_" class="st5" d="M1126,589.9c8.7,36.3,15.5,73,20.2,110c0.2,1.9,3.2,1.9,3,0c-4.8-37.3-11.6-74.3-20.3-110.8
				C1128.5,587.2,1125.6,588,1126,589.9z"/>
			<path id="Path_25_" class="st5" d="M1114.1,624.3c8.8,5.3,16.3,12.1,22.3,20.5c1.1,1.6,3.7,0.1,2.6-1.5
				c-6.3-8.8-14.1-16-23.3-21.5C1113.9,620.7,1112.4,623.3,1114.1,624.3z"/>
			<path id="Path_26_" class="st5" d="M1152.4,645.2c-3.6,9-6.5,18.2-8.7,27.7c-0.4,1.9,2.4,2.7,2.9,0.8c2.2-9.4,5.1-18.7,8.7-27.7
				C1156,644.2,1153.1,643.4,1152.4,645.2z"/>
			<path id="Path_27_" class="st5" d="M1113.9,690.6c11,3.1,21.7,6.7,32.3,10.9c1.8,0.7,2.6-2.2,0.8-2.9
				c-10.6-4.2-21.4-7.8-32.3-10.9C1112.8,687.2,1112,690.1,1113.9,690.6z"/>
			<path id="Path_28_" class="st5" d="M1254.8,619.2c-13.3,46.3-50.1,81.8-61.9,128.7c-0.5,1.9,2.4,2.7,2.9,0.8
				c11.8-46.9,48.6-82.4,61.9-128.7C1258.3,618.1,1255.4,617.3,1254.8,619.2z"/>
			<path id="Path_29_" class="st5" d="M1228,638.7c-2.5,16.2-5.1,32.4-7.6,48.6c-0.3,1.9,2.6,2.7,2.9,0.8
				c2.5-16.2,5.1-32.4,7.6-48.6C1231.2,637.6,1228.3,636.8,1228,638.7z"/>
			<path id="Path_30_" class="st5" d="M1231,674.3c8.9-6.4,18.2-12.2,27.9-17.5c1.7-0.9,0.2-3.5-1.5-2.6c-9.7,5.2-19,11-27.9,17.5
				C1227.9,672.9,1229.4,675.5,1231,674.3z"/>
			<path id="Path_31_" class="st5" d="M1202.3,732.3c9.1-10.7,22.1-16.1,34.9-21.2c1.8-0.7,1-3.6-0.8-2.9
				c-13.2,5.3-26.7,10.9-36.2,22C1198.9,731.7,1201,733.8,1202.3,732.3z"/>
			<path id="Path_32_" class="st5" d="M1057,741.8c3.7,23.4,0.6,46.9-2.9,70.2c-3.4,22.9-6.8,45.9-10.2,68.8
				c-0.3,1.9,2.6,2.7,2.9,0.8c3.6-24.2,7.3-48.4,10.8-72.6c3.3-22.5,5.9-45.3,2.3-67.9C1059.5,739.1,1056.7,739.9,1057,741.8
				L1057,741.8z"/>
			<path id="Path_33_" class="st5" d="M1037.5,784.5c3.4,14,8,27.6,13.8,40.8c0.8,1.8,3.4,0.2,2.6-1.5c-5.6-13-10.1-26.3-13.5-40.1
				C1039.9,781.9,1037,782.7,1037.5,784.5L1037.5,784.5z"/>
			<path id="Path_34_" class="st5" d="M1067.6,756.1c-1.4,9.1-4.7,17.4-9.9,24.9c-1.1,1.6,1.5,3.1,2.6,1.5
				c5.3-7.7,8.8-16.4,10.2-25.7C1070.7,755,1067.8,754.2,1067.6,756.1L1067.6,756.1z"/>
			<path id="Path_35_" class="st5" d="M1108.9,757.6c-12.3,42.7-28,84.3-46.8,124.6c-0.8,1.7,1.8,3.3,2.6,1.5
				c18.9-40.5,34.7-82.4,47.1-125.3C1112.3,756.6,1109.4,755.8,1108.9,757.6L1108.9,757.6z"/>
			<path id="Path_36_" class="st5" d="M1101,755.8c-0.4,9.7-0.7,19.3-1.1,29c-0.1,1.9,2.9,1.9,3,0c0.4-9.7,0.7-19.3,1.1-29
				C1104.1,753.9,1101.1,753.9,1101,755.8z"/>
			<path id="Path_37_" class="st5" d="M1078.8,768.8c-5.4,22.6,0,46.2,3.2,68.8c0.3,1.9,3.2,1.1,2.9-0.8c-3.1-22-8.4-45.1-3.2-67.2
				C1082.2,767.7,1079.3,766.9,1078.8,768.8z"/>
			<path id="Path_38_" class="st5" d="M1074.4,860.9c9.7-2.4,18.7-6.5,26.8-12.3c1.6-1.1,0.1-3.7-1.5-2.6c-7.9,5.6-16.6,9.6-26.1,12
				C1071.7,858.4,1072.5,861.3,1074.4,860.9z"/>
			<path id="Path_39_" class="st5" d="M240.9,567.7c10.1,54.6,16.4,109.9,18.7,165.3c0.1,1.9,3.1,1.9,3,0
				c-2.3-55.8-8.6-111.3-18.8-166.1C243.4,565,240.5,565.8,240.9,567.7L240.9,567.7z"/>
			<path id="Path_40_" class="st5" d="M230,631.1c10.6,13.3,19.1,28,25.3,43.8c0.7,1.8,3.6,1,2.9-0.8c-6.4-16.3-15.1-31.4-26-45.1
				C231,627.5,228.8,629.6,230,631.1z"/>
			<path id="Path_41_" class="st5" d="M260,594.4c-3.6,14.9-6.3,30-8.2,45.2c-0.2,1.9,2.8,1.9,3,0c1.8-14.9,4.5-29.7,8.1-44.4
				C263.3,593.3,260.4,592.5,260,594.4L260,594.4z"/>
			<path id="Path_42_" class="st5" d="M291.4,540.7c1.8,65.3-1.4,130.6-9.6,195.4c-0.2,1.9,2.8,1.9,3,0
				c8.2-64.8,11.4-130.1,9.6-195.4C294.3,538.8,291.3,538.8,291.4,540.7z"/>
			<path id="Path_43_" class="st5" d="M274.6,609.4c7.2,17.1,12.2,35,14.9,53.4c0.3,1.9,3.2,1.1,2.9-0.8
				c-2.7-18.4-7.7-36.3-14.9-53.4C276.7,606.9,273.8,607.6,274.6,609.4z"/>
			<path id="Path_44_" class="st5" d="M286.1,722.5c4.3-8.4,10-15.7,17-22c1.4-1.3-0.7-3.4-2.1-2.1c-7.2,6.4-13.1,14-17.5,22.6
				C282.6,722.7,285.2,724.2,286.1,722.5z"/>
			<path id="Path_45_" class="st5" d="M281.8,551.8c2.6,8.3,5.5,16.4,8.7,24.5c0.7,1.8,3.6,1,2.9-0.8c-3.3-8-6.2-16.2-8.7-24.5
				C284.1,549.1,281.2,549.9,281.8,551.8z"/>
			<path id="Path_46_" class="st5" d="M67,945.8c65.6-6.4,132-4.4,197,6.2c18.3,3,36.6,6.7,54.7,11c1.9,0.4,2.7-2.4,0.8-2.9
				c-64.1-15.3-130-22.3-195.9-20.8c-18.9,0.5-37.8,1.6-56.6,3.5C65.1,942.9,65,945.9,67,945.8z"/>
			<path id="Path_47_" class="st5" d="M655,974.5c0.1-4.3,10.8-5.1,13.4-4.8c4.4,0.4,8.6,2.7,11,6.4c7.9,12.2-8.1,17.1-17.3,14.1
				c-1.8-0.6-2.6,2.3-0.8,2.9c6.4,2.2,14.9,1.9,20.1-3.2c4.4-4.3,3.5-11.2,0.2-15.9c-3.7-5.2-9.8-7.8-16.1-7.4
				c-4.4,0.3-13.4,2.3-13.5,7.9C652,976.4,655,976.4,655,974.5L655,974.5z"/>
			<path id="Path_48_" class="st5" d="M654.5,972.9c6.4-9,19.8-13.1,29.8-16.3c11.1-3.5,22.6-5.6,34.3-6.2c1.9-0.1,1.9-3.1,0-3
				c-13.1,0.7-26.1,3.1-38.5,7.4c-10,3.5-21.8,7.6-28.2,16.6C650.8,973,653.4,974.5,654.5,972.9L654.5,972.9z"/>
			<path id="Path_49_" class="st5" d="M720.1,950.8c7.7,0.9,13.9,6.9,15.4,14.4c0.4,1.9,3.3,1.1,2.9-0.8c-1.8-9-9.3-15.5-18.3-16.6
				C718.1,947.6,718.2,950.6,720.1,950.8L720.1,950.8z"/>
			<path id="Path_50_" class="st5" d="M723.8,947.7c11.2-7,22.1,2,24.4,13.3c0.4,1.9,3.3,1.1,2.9-0.8c-2.8-13.3-16-23.1-28.8-15.1
				C720.7,946.2,722.2,948.8,723.8,947.7z"/>
			<path id="Path_51_" class="st5" d="M736.2,967.3c6.2,2,12.8-1.5,15-7.5c0.7-1.8-2.2-2.6-2.9-0.8c-1.6,4.5-6.8,6.9-11.3,5.4
				C735.1,963.8,734.3,966.7,736.2,967.3L736.2,967.3z"/>
			<path id="Path_52_" class="st5" d="M654.1,971.4c-5.2,3-4.9,10.1-2.9,15c2.2,5.6,7.6,9.3,13.7,7.8c1.9-0.5,1.1-3.3-0.8-2.9
				c-4.7,1.1-8.5-1.9-10.1-6.1c-1.3-3.4-2.2-9,1.7-11.2C657.3,973,655.8,970.4,654.1,971.4L654.1,971.4z"/>
			<path id="Path_53_" class="st5" d="M655.5,982.8c-3-8.1,11.6-13,16.7-8.4c3.2,2.9,2.4,7.5-1,9.9c-1.5,1.1-3.4,1.9-5.3,1.5
				c-6.7-1.3-1.2-9,2.1-4.6c1.2,1.5,3.8,0,2.6-1.5c-3.9-5.1-12.5-2.5-10.9,4.4c1.7,7.6,12.5,4.9,15.8,0.2c4.6-6.6-0.4-14.6-8-14.7
				c-7.2-0.1-18.1,5.1-14.8,13.9C653.3,985.4,656.2,984.6,655.5,982.8L655.5,982.8z"/>
			<path id="Path_54_" class="st5" d="M679.4,990.6c21-4.5,41-12.2,59.6-22.9c1.7-1,0.2-3.6-1.5-2.6c-18.4,10.6-38.2,18.1-58.9,22.6
				C676.7,988.1,677.5,991,679.4,990.6z"/>
			<path id="Path_55_" class="st5" d="M735.8,943c17-14.3,34-31.3,55.8-37.8c1.8-0.6,1.1-3.4-0.8-2.9c-22.3,6.7-39.7,24-57.1,38.6
				C732.2,942.1,734.4,944.2,735.8,943L735.8,943z"/>
			<path id="Path_56_" class="st5" d="M791.4,906.3c11.2,3.8,19.3,13.8,20.5,25.6c0.2,1.9,3.2,1.9,3,0
				c-1.3-13.2-10.1-24.3-22.7-28.5C790.4,902.8,789.6,905.7,791.4,906.3z"/>
			<path id="Path_57_" class="st5" d="M750.9,962.7c20.5-9.1,40.9-18.6,61.1-28.5c1.7-0.8,0.2-3.4-1.5-2.6
				c-20.2,9.9-40.6,19.3-61.1,28.5C747.6,960.9,749.2,963.5,750.9,962.7z"/>
			<path id="Path_58_" class="st5" d="M722.9,949.1c0.7-0.5,1.4-0.9,2-1.4c0.7-0.5,1-1.3,0.5-2.1c-0.4-0.7-1.4-1-2.1-0.5
				s-1.4,0.9-2,1.4c-0.7,0.5-1,1.3-0.5,2.1C721.2,949.2,722.2,949.6,722.9,949.1z"/>
			<path id="Path_59_" class="st5" d="M426.2,924.3c1.9,22.4,6.9,44.3,15,65.2c0.7,1.8,3.6,1,2.9-0.8c-8-20.7-13.1-42.3-14.9-64.4
				C429.1,922.4,426.1,922.4,426.2,924.3L426.2,924.3z"/>
			<path id="Path_60_" class="st5" d="M421,969.2c6.2,3.2,11.7,7.4,16.6,12.5c1.3,1.4,3.4-0.7,2.1-2.1c-5-5.3-10.7-9.6-17.2-12.9
				C420.8,965.7,419.3,968.3,421,969.2L421,969.2z"/>
			<path id="Path_61_" class="st5" d="M442.9,954.2c-4.3,6.2-6.2,13.4-5.5,20.9c0.2,1.9,3.2,1.9,3,0c-0.6-7,1.1-13.5,5.1-19.4
				C446.5,954.2,443.9,952.7,442.9,954.2z"/>
			<path id="Path_62_" class="st5" d="M451.8,945.9c2.9,12.4,3.8,25,2.5,37.7c-0.2,1.9,2.8,1.9,3,0c1.2-12.9,0.3-25.8-2.7-38.5
				C454.3,943.3,451.4,944.1,451.8,945.9z"/>
			<path id="Path_63_" class="st5" d="M447.4,950.3c2.4,4.6,4.8,9.3,7.2,13.9c0.9,1.7,3.5,0.2,2.6-1.5c-2.4-4.6-4.8-9.3-7.2-13.9
				C449.1,947.1,446.5,948.6,447.4,950.3z"/>
		</g>
		<circle id="Oval_1_" class="st6" cx="1051.2" cy="671.6" r="12.2"/>
		<circle id="Oval_2_" class="st6" cx="1069" cy="655.2" r="5"/>
		<circle id="Oval_5_" class="st7" cx="589" cy="579.1" r="5.2"/>
		<circle id="Oval_8_" class="st7" cx="1027.5" cy="626.6" r="7"/>
		<path id="Path_64_" class="st7" d="M448.1,469.4c-1.2-1.6,0-4.4,1.5-5.3c1.9-1.2,4.5-0.6,6.5-0.1c2.1,0.5,4,1.5,6,2
			c2.6,0.7,5.5,1,8.1,0c2.8-1.1,4.2-3.3,4.8-6.1c0.6-2.4,0.4-5.4,2.4-7.3c1.9-1.9,4.9-2.1,7.4-2.1c6.4,0.1,12.7,3.7,16.2-3.7
			c1.8-4,2.1-8.4,6.5-10.7c5.3-2.8,11.7-0.4,16.9,1.4c1.8,0.6,2.6-2.2,0.8-2.9c-7.9-2.8-19.3-5.4-24.2,3.9c-0.8,1.6-1.3,3.4-1.9,5
			c-0.6,1.5-1.3,4.1-2.9,4.8c-1.8,0.8-5.1-0.1-7-0.4c-3.7-0.5-7.6-0.9-11.2,0.7c-3.6,1.7-4.8,4.6-5.5,8.4
			c-1.8,10.1-9.8,5.4-16.4,3.8c-3.6-0.9-7.5-0.6-10,2.4c-1.9,2.3-2.4,5.2-0.6,7.6C446.6,472.5,449.2,471,448.1,469.4L448.1,469.4z"
			/>
		<path id="Path_65_" class="st7" d="M471.3,485.6c1-5.8,5.5-9,11.3-8.7c3.2,0.1,6.7,1.2,9.9,0.2c2.2-0.7,3.9-2.2,4.8-4.3
			c2.1-4.6,2.1-8.5,6.6-11.9c3.8-2.9,8.3-3.8,12.9-2.7c2.9,0.7,6,2,9,0.9c3.2-1.2,4.7-4.9,7.6-6.8c3.7-2.4,8.2-3.2,12.4-3.9
			c1.9-0.3,1.1-3.2-0.8-2.9c-3.9,0.7-7.8,1.5-11.3,3.2c-1.6,0.8-3,1.7-4.3,2.9c-2.6,2.4-3.7,4.8-8,4.6c-3.7-0.1-6.6-1.9-10.5-1.4
			c-3.5,0.5-6.8,2-9.5,4.2c-2.5,2.1-4.5,4.8-5.5,8c-1.1,3.3-1.8,7.3-6.3,7.4c-2.1,0.1-4.2-0.4-6.3-0.5c-7.3-0.6-13.6,3.4-14.9,10.8
			C468.1,486.7,470.9,487.5,471.3,485.6L471.3,485.6z"/>
		<path id="Path_68_" class="st5" d="M689.1,536.8c0.4-5.3,6.5-5.1,9.7-3.3c1.6,0.9,2.9,2.2,4.2,3.5c2.3,2.2,4.5,4.7,7.4,6.1
			c5.4,2.4,8.7-0.5,13.2-3.1c14.2-8,24.7,18,39,8.9c0.8-0.5,0.1-1.8-0.8-1.3c-9.5,6.1-18.4-5.7-26.3-9.2c-2.6-1.2-5.4-1.9-8.2-1.4
			c-4.1,0.7-6.8,4.3-10.7,5.3c-9.2,2.5-12.7-10.5-21-11.4c-4-0.5-7.8,1.9-8.1,6C687.5,537.8,689,537.8,689.1,536.8L689.1,536.8z"/>
		<path id="Path_69_" class="st5" d="M942.9,594.1c1.8-7.1,7.9-10.8,15-10.2c3.6,0.3,6.5,0.2,8.9-2.9c2.8-3.7,2.9-8.7,6.3-12.2
			c4-4,10.1-5.2,15.5-6.2c0.9-0.2,0.5-1.6-0.4-1.4c-5,0.9-10.4,2-14.5,5.1c-3.9,3-4.9,7.1-6.8,11.4c-2.5,5.5-6.3,4.5-11.4,4.6
			c-2,0-3.9,0.5-5.7,1.3c-4.3,2-7.2,5.7-8.4,10.2C941.2,594.7,942.6,595.1,942.9,594.1L942.9,594.1z"/>
		<path id="Path_70_" class="st5" d="M977.1,588.5c0-5.1,3.1-10,8-11.6c3.5-1.2,7.2,0.2,10.7-1c5.6-2,8.4-9,14.7-9.3
			c1-0.1,1-1.6,0-1.5c-3.1,0.2-5.4,1.6-7.7,3.6c-1.8,1.6-3.4,3.5-5.5,4.7c-3.3,2.1-6.3,1.2-9.8,1.5c-7,0.6-12,6.8-12,13.6
			C975.6,589.5,977.1,589.5,977.1,588.5L977.1,588.5z"/>
		<path id="Path_73_" class="st6" d="M339.4,686.1c-1.1-3.5-0.9-7.1,1-10.2c2-3.2,5.1-4.2,8-6.1c3.7-2.5,5.1-5.9,5.7-10.2
			c0.3-2.3,0.3-4.6,0.9-6.9c1.1-4,3.6-5.8,7.3-7.4c3.4-1.4,6.5-2.6,8.7-5.7c1.1-1.6-1.5-3.1-2.6-1.5c-3.2,4.4-9.5,4.3-13.3,8
			c-3.8,3.8-3.2,9.2-4.1,14c-1.3,7.3-7.9,7.7-12,12.6c-3.3,4-4.1,9.4-2.5,14.2C337.1,688.7,340,687.9,339.4,686.1L339.4,686.1z"/>
		<path id="Path_74_" class="st6" d="M340.8,652.9c7.4-4.4,1.2-15.2,8.7-19.4c4-2.3,7.6-3.3,10.8-6.9c3.1-3.5,5.1-7.7,7.1-11.9
			c0.8-1.7-1.8-3.3-2.6-1.5c-2,4.2-4,8.4-7.2,11.8c-3.4,3.7-8,4.1-11.7,7.1c-5.5,4.5-1.1,14.8-6.7,18.2
			C337.6,651.3,339.1,653.8,340.8,652.9L340.8,652.9z"/>
		<path id="Path_75_" class="st6" d="M747.3,527.2c-6.1,0.7-11-4.7-10-10.8c1-5.8,6.5-10.3,12.3-10.7c4.7-0.3,10,1.6,12.2,6.1
			c2.4,4.9,0.2,11.6-4.9,13.5c-1.8,0.7-1,3.6,0.8,2.9c6.1-2.4,9.3-9,7.7-15.4c-1.9-7.4-10-11-17.2-10c-7,1-13.4,6.8-14.1,14
			c-0.7,7.4,5.6,14.1,13.1,13.3C749.2,530,749.2,527,747.3,527.2z"/>
		<path id="Path_76_" class="st8" d="M292.3,857.4c6.3-6.8,15.9-16.3,28.8-26c11.1-8.4,20.1-13.5,31.5-19.9
			c16.3-9.1,36.6-20.2,60.3-32.9c36.4-3.4,67-5.8,89.8-7.5c42.4-3.2,110.5-8.3,188.5-10.3c16.1-0.4,31.5-0.7,31.5-0.7
			c43.6-0.8,54.6-0.1,100.1-0.7c33.4-0.4,33.2-0.8,51.4-0.7c27.4,0.2,49.9,1.2,65.1,2.1c9.1,0.7,27.6,2.1,45.9,4.1
			c3.6,0.4,8.9,1,15.8,2.7c8.3,2.1,14.9,4.8,19.2,6.9c-5.4,8.2-10.9,16.4-16.4,24.7C985.7,826,967.3,851.5,949,876
			c-2.9,1.8-8.2,4.6-15.1,6.9c-14.7,4.8-27.2,3.7-31.5,3.4c-18-1.3-61.7-0.5-125.4,1.4c-28.3-0.7-56.7-1.4-85-2.1
			c-8.2,12.6-16.4,25.1-24.7,37.7c-54.8-3-109.6-5.9-164.5-8.9c11-12.1,21.9-24.2,32.9-36.3C454.5,871.1,373.4,864.2,292.3,857.4
			L292.3,857.4z"/>
		<path id="Path_77_" class="st6" d="M349.8,839.8c49.4,3.3,98.7,7.1,148,11.5c1.9,0.2,1.9-2.8,0-3c-49.3-4.4-98.6-8.2-148-11.5
			C347.9,836.7,347.9,839.7,349.8,839.8L349.8,839.8z"/>
		<path id="Path_78_" class="st6" d="M730.2,864.7c51.6-0.4,103.3,0.7,154.9,3.3c1.9,0.1,1.9-2.9,0-3c-51.6-2.6-103.2-3.7-154.9-3.3
			C728.3,861.7,728.3,864.7,730.2,864.7z"/>
		<path id="Path_79_" class="st6" d="M439.2,809.5c25,4.4,50.4,3.8,75.7,3.6c26.8-0.2,53.6,0.4,80.4,1.3
			c52.9,1.9,105.8,5.4,158.7,7.6c30.4,1.3,60.9,2.1,91.3,2.1c1.9,0,1.9-3,0-3c-106,0.3-211.6-10.9-317.5-11
			c-29.3,0-58.8,1.7-87.8-3.4C438.2,806.3,437.3,809.2,439.2,809.5z"/>
		<path id="Path_80_" class="st6" d="M680.2,788.1c75.2,0.1,150.4,2.3,225.5,6.6c1.9,0.1,1.9-2.9,0-3c-75.1-4.3-150.3-6.5-225.5-6.6
			C678.3,785.1,678.3,788.1,680.2,788.1z"/>
		<path id="Path_81_" class="st6" d="M1019.2,773.6c-22.2,33.9-45.4,67-69.7,99.3c-1.2,1.5,1.4,3,2.6,1.5
			c24.3-32.3,47.6-65.5,69.7-99.3C1022.9,773.5,1020.3,772,1019.2,773.6z"/>
		<path id="Path_82_" class="st6" d="M318,836.5c30.8-21.3,62-42.7,96.8-57c1.8-0.7,1-3.6-0.8-2.9c-35.1,14.4-66.5,35.9-97.6,57.3
			C314.9,835,316.4,837.6,318,836.5z"/>
		<path id="Path_83_" class="st6" d="M411.9,779.9c79.4-7.3,158.9-12.6,238.5-15.7c79.6-3.1,159.3-4.3,239-3.1
			c22.3,0.3,44.6,0.9,66.8,2.9c21.4,1.9,43.8,4.1,63.8,12.4c1.8,0.7,2.6-2.2,0.8-2.9c-17-7.1-35.7-9.4-53.9-11.4
			c-19.9-2.2-39.9-3.2-59.9-3.7c-39.9-1-79.9-0.9-119.8-0.5c-80,0.7-160,3.6-239.9,8.6c-45.2,2.8-90.4,6.3-135.5,10.5
			C409.9,777.1,409.9,780.1,411.9,779.9L411.9,779.9z"/>
		<path id="Path_84_" class="st6" d="M694,887.2c74.5,2.5,149,2.6,223.4-0.2c12.8-0.5,27.1-2,35-13.4c1.1-1.6-1.5-3.1-2.6-1.5
			c-7.9,11.3-23.2,11.6-35.6,12c-17.1,0.5-34.2,1.2-51.4,1.5c-36,0.7-72,0.7-108,0.1c-20.3-0.3-40.6-0.9-60.9-1.5
			C692.1,884.1,692.1,887.1,694,887.2L694,887.2z"/>
		<path id="Path_85_" class="st6" d="M316.5,833.8c-8.8,7.7-17.6,15.4-26.4,23.1c-1.1,0.9-0.1,2.5,1.1,2.6
			c80.9,7,161.8,14,242.7,19.4c1.9,0.1,1.9-2.9,0-3c-81-5.5-161.9-12.4-242.7-19.4c0.4,0.9,0.7,1.7,1.1,2.6
			c8.8-7.7,17.6-15.4,26.4-23.1C320,834.6,317.9,832.5,316.5,833.8L316.5,833.8z"/>
		<path id="Path_86_" class="st6" d="M567.9,846.8c-23.3,20.5-45.2,42.4-65.6,65.7c-1.3,1.4,0.8,3.6,2.1,2.1
			c20.4-23.3,42.4-45.3,65.6-65.7C571.5,847.6,569.4,845.5,567.9,846.8L567.9,846.8z"/>
		<path id="Path_87_" class="st6" d="M569,848.9c48.7-4.7,97.7-3.5,146.1,3.7c1.9,0.3,2.7-2.6,0.8-2.9c-48.6-7.3-97.9-8.6-146.9-3.8
			C567.1,846.1,567.1,849.1,569,848.9L569,848.9z"/>
		<path id="Path_88_" class="st6" d="M713.6,851.6c-16.4,23.5-32.9,47-49.3,70.5c-1.1,1.6,1.5,3.1,2.6,1.5
			c16.4-23.5,32.9-47,49.3-70.5C717.3,851.5,714.7,850,713.6,851.6L713.6,851.6z"/>
		<path id="Path_89_" class="st6" d="M502.7,916c54,2.7,108.1,5.3,162.1,8c1.9,0.1,1.9-2.9,0-3c-54-2.7-108.1-5.3-162.1-8
			C500.8,912.9,500.8,915.9,502.7,916z"/>
		<path id="Path_90_" class="st6" d="M544.6,897.2c8.4,1.5,16.7,2.9,25.1,4.4c1.9,0.3,2.7-2.6,0.8-2.9c-8.4-1.5-16.7-2.9-25.1-4.4
			C543.5,894,542.7,896.9,544.6,897.2z"/>
		<path id="Path_91_" class="st6" d="M564.1,888c-5.1,5.3-9.9,10.9-14.4,16.8c-1.2,1.5,1.4,3,2.6,1.5c4.4-5.6,9-11,14-16.2
			C567.5,888.8,565.4,886.6,564.1,888L564.1,888z"/>
		<path id="Path_92_" class="st6" d="M578.2,889.5c0.1-5.2,4-8.6,9.1-8.5c2.5,0,4.8,0.8,7.3,0.4c4.6-0.7,8.6-3.6,10.7-7.6
			c1.5-2.7,1.9-5.8,4.2-8c2.5-2.4,6-3.5,9.4-3.8c3.1-0.3,6.5-0.1,9.5,1c2.5,1,5.1,2.9,5.2,5.9c0.1,2.3-1.3,4.7-3.9,4.8
			c0.1,1,0.3,2,0.4,2.9c2.7-0.4,5.7,2.5,6.5,4.8c0.4,1.1,0.5,2.5,0.4,3.6c-0.1,2.6-1.4,5.3-3.1,7.3c-1.7,2-3.9,3.6-6.4,4.3
			c-2.2,0.6-2.6,0.7-4.2-1.1c-1.8-2.1-1-2.5,0.9-4.1c8.6-7.2,15.7,2.2,24.5,2.5c6,0.2,11.7-3.5,12.9-9.6c0.6-3-0.3-5.7-1.8-8.4
			c-1.7-3-2.7-3.6-2-7.3c-0.5-2.2,0.2-3.3,2.1-3.3c1.1-0.5,2.1-0.5,3.1,0.2c2.4,0.7,3.8,2.3,5.3,4.3c1.1,1.5,3.7,0.1,2.6-1.5
			c-3.1-4.3-8.5-8.4-13.9-5.2c-5.1,3-3.3,8.3-0.8,12.4c2.6,4.4,4.4,9-0.2,13c-5.2,4.5-11.1,1.5-16.2-1c-5.2-2.5-11-2.8-16,0.5
			c-3,1.9-7.4,6.9-4.1,10.5c3.6,3.8,11.1,0.6,14.3-2c4.1-3.3,6.8-8.8,6-14.2c-0.9-5.4-5.1-9.6-10.6-8.7c-1.7,0.3-1.3,3,0.4,2.9
			c6.1-0.1,8.7-7.5,5.5-12.2c-4.4-6.5-15.4-6.6-22-4.2c-3.3,1.2-6.2,3.3-8,6.4c-1.3,2.2-1.7,4.9-3.1,7c-2.2,3.2-6.1,5.1-10,5.1
			c-4.6-0.1-8.2-1.4-12.2,1.6c-3.1,2.3-4.6,5.7-4.6,9.4C575.2,891.5,578.2,891.5,578.2,889.5L578.2,889.5z"/>
		<path id="Path_71_" class="st8" d="M852.3,272.6c-0.4,1.9,2.5,2.7,2.9,0.8"/>
		<path id="Path_16_" class="st8" d="M808.2,268.6"/>
		<path id="Path_15_" class="st8" d="M796.6,272.2c2.4,3,7,5,10.4,2.4c1.5-1.2-0.6-3.3-2.1-2.1c-1.6,1.2-4.2-0.4-5.3-1.5"/>
		<path id="Path_12_" class="st8" d="M831.1,273c-0.5,1.9,2.4,2.7,2.9,0.8"/>
		<path id="Path_148_" class="st6" d="M481.7,734.3c-2.3,15.6-4.6,31.3-6.9,46.9c-42.3,12.9-63,21.3-62.2,25c1,4.6,33.6,2.4,98-6.6
			c0.9-22.4,1.9-44.7,2.8-67.1C502.8,733.1,492.3,733.7,481.7,734.3L481.7,734.3z"/>
		<path id="Path_149_" class="st8" d="M502.2,591.2c-2.1,1.6-3.3,3.4-7.8,12.1c-3.6,6.9-5.3,10.4-6.5,13c-8.1,18.4-16,47.3-16,47.3
			c-6.3,22.9-9.5,34.3-11.7,46.4c-3.2,17.1-4.5,31.6-5.2,42.1c5.9,2.7,13,5.4,21.3,7.4c19.6,4.7,36.5,3.3,47.7,1.3
			c2-14.1,4.8-29.4,8.7-45.5c3.4-14.4,7.3-27.7,11.3-39.9c4.3,2.7,10.6,6.9,18.2,12.1c24.9,17.3,32.7,25.7,47.3,35.1
			c9.6,6.2,23.8,14,43.4,20c4.5-0.6,16.8-2.8,27.3-13c15.8-15.5,14.2-36.5,13.9-39.5c-6.6-7-15.9-16.4-27.8-26.5
			c-21-17.8-39.1-28.7-52-36.4c-10.4-6.2-22-11.9-45.1-23.4c0,0-27.1-13.4-52-15.6C512.8,587.8,506.9,587.6,502.2,591.2L502.2,591.2
			z"/>
		<path id="Path_150_" class="st6" d="M456.2,750.8c2.6-26.2,7.4-52.1,14.3-77.4c3.4-12.4,7.3-24.7,11.7-36.9
			c4.4-12.1,8.8-24.8,15-36.2c3.7-6.8,8.7-9.1,16.2-9.4c6.8-0.3,13.6,0.6,20.2,2.2c12.1,2.8,23.8,7.5,35.2,12.4
			c21.6,9.2,42.4,20.5,61.9,33.7c22.2,15,42.7,32.3,61.2,51.7c1.3,1.4,3.5-0.7,2.1-2.1c-35-36.5-77.2-65.9-123.7-85.8
			c-11.4-4.9-23-9.5-35.1-12.5c-10-2.4-25.5-5.7-34.6,0.8c-3.9,2.8-6.1,7.3-8.1,11.6c-2.6,5.7-5,11.5-7.4,17.3
			c-5.3,13.1-10,26.4-14.1,40c-8.9,29.5-14.9,59.9-17.9,90.6C453,752.7,456,752.7,456.2,750.8L456.2,750.8z"/>
		<path id="Path_151_" class="st6" d="M455.6,752.2c20.6,11.6,44.8,14.9,67.8,9.2c1.9-0.5,1.1-3.4-0.8-2.9
			c-22.2,5.5-45.6,2.4-65.5-8.9C455.4,748.7,453.9,751.2,455.6,752.2L455.6,752.2z"/>
		<path id="Path_152_" class="st6" d="M526.4,759.2c3.5-28.5,9.9-56.6,18.9-83.9c0.6-1.8-2.3-2.6-2.9-0.8
			c-9.1,27.6-15.4,55.9-19,84.7C523.2,761.1,526.2,761.1,526.4,759.2L526.4,759.2z"/>
		<path id="Path_153_" class="st6" d="M536,672.4c40.1,20.4,70,59.6,115.1,70.1c1.9,0.4,2.7-2.5,0.8-2.9
			c-44.8-10.5-74.6-49.5-114.4-69.8C535.8,668.9,534.3,671.5,536,672.4L536,672.4z"/>
		<path id="Path_154_" class="st9" d="M490.2,762.4c10.2-32.4,21.4-65.4,33.7-99c2.9-8,5.9-15.9,8.9-23.8c20.9,11,41.9,22,62.8,33
			c29.2,15.4,58.4,30.9,87.6,46.5c-0.8,3.7-3.7,13.8-12.8,19.2c-6.8,4-14.3,3.7-22.3,2.1c-24.8-5-40.4-20-71.6-43.3
			c-7.1-5.3-18-13.3-31.9-22.7c-2.7,7.6-5.3,15.5-7.8,23.8c-6.7,22.4-11,43.5-13.8,62.8c-5.8,1.5-13.5,2.8-22.3,2.5
			C496.8,763.3,493.3,762.9,490.2,762.4L490.2,762.4z"/>
		<path id="Path_155_" class="st9" d="M542,673.3c-2.5-1-12.6,17.8-15.6,23.4c-7.7,14.3-17.7,35.4-27,63.5c1.9,0.8,4.3,1.7,7.1,2.1
			c7.4,1.3,13.4-0.5,16.7-1.8c5.3-27.8,10.7-49.9,14.9-65.6C540.7,685.1,543.8,674.1,542,673.3z"/>
		<path id="Path_156_" class="st6" d="M385.5,746.4c-6.8,17.8-13.7,35.7-20.5,53.5c-39.9,13.3-59.3,22.1-58.4,26.4
			c1.1,5,29.7,4,85.8-3.1c6.7-21.7,13.4-43.3,20.2-65C403.5,754.3,394.5,750.4,385.5,746.4z"/>
		<path id="Path_157_" class="st8" d="M442.8,572.5c-7.7,5.4-12.1,11.8-14.3,15.2c-9.6,14.5-14.5,21.8-17.8,28.2
			c-9.4,18.1-15.4,33.3-18.2,40.8c-9.5,25.1-14.3,45.5-18.7,63.8c-3.2,13.7-5.5,25.1-6.9,33c4,4.8,9.7,10.5,17.3,15.6
			c16,10.7,32.1,13.2,40.8,13.9c7.3-21.1,14.2-38.9,20-52.9c6.1-15,10.6-25,18.7-36.4c5.8-8.3,11.5-14.5,15.6-18.7
			c4.5,6.3,11,14.8,19.5,24.3c10.5,11.7,29.7,32.8,60.7,51.2c25.1,14.9,44.8,20.2,64.6,25.6c20.6,5.6,26.9,5,31.7,2.2
			c19.7-11.6,9.7-57.9,9.1-60.7c-19.3-14.8-33.6-27.9-43.4-37.3c-8.8-8.5-18.7-18.8-36-34.3c-4.6-4.1-9.4-8.4-16-13.9
			c-3.1-2.6-14.6-12-34.3-25.6c0,0-25-17.3-49.4-29.9c0,0-6.2-3.2-16.9-6.5c-8.9-2.7-12.6-2.9-16-2.2
			C451.7,568,448.2,568.8,442.8,572.5L442.8,572.5z"/>
		<path id="Path_158_" class="st6" d="M439.9,572.8c-44.1,49-62.7,114.2-74.9,177.5c-0.4,1.9,2.5,2.7,2.9,0.8
			c12.1-62.8,30.4-127.6,74.1-176.2C443.4,573.5,441.2,571.3,439.9,572.8L439.9,572.8z"/>
		<path id="Path_159_" class="st6" d="M366,753.8c14.6,16.9,34.7,28.2,56.7,31.8c1.9,0.3,2.7-2.6,0.8-2.9
			c-21.6-3.5-41.1-14.5-55.4-31C366.9,750.2,364.8,752.3,366,753.8z"/>
		<path id="Path_160_" class="st6" d="M425.6,784.2c6.4-19.9,14-39.3,23-58.2c8.2-17.1,16.6-36.8,31.3-49.4c1.5-1.3-0.7-3.4-2.1-2.1
			c-14.9,12.8-23.5,32.7-31.7,50c-9.1,19.1-16.8,38.8-23.3,58.9C422.1,785.2,425,786,425.6,784.2L425.6,784.2z"/>
		<path id="Path_161_" class="st6" d="M469.3,663.8c41.1,56.6,97.1,107.4,169.1,117c1.9,0.3,1.9-2.7,0-3
			c-70.8-9.4-126-59.8-166.5-115.5C470.7,660.8,468.1,662.3,469.3,663.8z"/>
		<path id="Path_162_" class="st6" d="M442.4,574.8c16.5-12.1,37.5,1.3,52.7,9.5c15.7,8.4,30.8,17.7,45.5,27.8
			c29.6,20.5,56.9,44.3,81.3,70.8c1.3,1.4,3.4-0.7,2.1-2.1c-40.2-43.7-88.5-80.4-141.9-106.5c-12.8-6.3-28.5-11.3-41.2-2
			C439.4,573.3,440.9,575.9,442.4,574.8L442.4,574.8z"/>
		<path id="Path_163_" class="st10" d="M389.6,769.2c6.6-13.6,18.2-37.6,32.5-67.9c27.5-57.9,32.1-69.1,44.7-73.4
			c21.8-7.3,42.5,14.6,90.4,48.8C584,695.9,620.9,720,668,744.3c0.9,5.2,2.8,19.4-5.5,28.4c-3.7,3.9-12.1,9.9-38.1,5.5
			c-10-1.7-56.8-10.6-113.6-67.2c-14.3-14.2-24.9-27.2-31.9-36.4c-2.9,3.4-7.3,8.9-12.1,15.9c-8.4,12.4-14,23.7-27,55
			c-4.2,10-9.4,22.8-15.2,37.7c-3.8,0.2-11,0.2-19-3.1C397.4,777,392.2,772,389.6,769.2z"/>
		<path id="Path_164_" class="st9" d="M471,661.2c3.9,2,9.6,5,16.3,9c42.3,25.2,43.3,40.5,74.8,59.2c24.5,14.5,33.7,11.1,58.9,30.1
			c9.8,7.4,17.1,14.5,21.8,19.4c-9.7-0.8-23.1-2.8-38.4-7.6c-20-6.3-33.8-14.6-44-20.8c-5.1-3.1-26.3-16.2-49.5-39.5
			C499.3,699.5,484.8,683.1,471,661.2L471,661.2z"/>
		<path id="Path_165_" class="st9" d="M475.5,675c-1.4-1.8-11.9,2.7-21.1,9.7c-16.6,12.5-21.3,27-36.7,55.4
			c-4.5,8.3-11.3,20.4-20.4,34.6c8.9,3.6,17.8,7.2,26.7,10.7c2-5.4,17.3-46.3,28.7-71c3.7-7.9,5.7-12.3,9.3-18.3
			C470,682.9,476.8,676.7,475.5,675L475.5,675z"/>
		<path id="Path_166_" class="st8" d="M890.5,503.3c2.6,1.4,2.5,2.9,5.8,5.7c2.7,2.3,3.7,2,4.8,3.9c1.2,2.1,1.4,4.5,1.4,6.1
			c1.1,0,3.1,0.3,5.2,1.8c0.6,0.4,4.7,3.3,5.8,9.6c0.8,4.3-0.2,7.9-0.7,9.2c1.1,1,2.8,2.8,3.4,5.7c0.8,3.6-0.3,6.9-1.7,10.5
			c-4.1,10.1-7.8,14.3-12,22.8c-1.3,2.5-3,6.4-4.8,11.4c-0.1,3.8-0.1,10,0.7,17.5c1.2,11.2,3.4,19.3,4.1,21.9
			c3.5,13,9.7,43.4,10.3,71.3c0.3,14.3,0.6,37.2-9.3,60.6c-3.7,8.8-9.2,21.2-20.3,26.3c-1.8,0.8-14.7,6.7-23.7-2.6
			c-3.3-3.4-5-7.6-5.8-10.5c-0.2-1.5-0.4-3.8-0.3-6.6c0.3-12.1,5.9-20.8,7.9-24.1c6.8-11.5,8.9-24.3,12.4-46
			c2.2-13.4,1.7-25,0.7-47.8c-0.7-15.6-2.2-36.7-5.5-61.8c-1.7-0.5-3.9-1.5-5.5-3.9c-2.4-3.7-1-7.1-2.8-13.6
			c-1.4-4.9-2.5-4-4.8-10.5c-1.7-4.7-3.3-9-2.4-14c0.2-1,1.1-6.9,4.5-8.3c4.3-1.9,9.1,4.9,10.3,6.6c2.4,3.4,3.6,7,4.1,9.2
			c2.4-4,4.9-8.8,7.2-14.5c1.1-2.6,2-5.1,2.8-7.5c-0.4-2.2-0.9-5.4-1.3-9.3c-0.5-5.2-0.7-7.9-0.1-11.3c0.4-2.3,1.4-7.4,4.5-8.8
			C887.3,501.6,889.4,502.7,890.5,503.3L890.5,503.3z"/>
		<path id="Path_167_" class="st6" d="M900.3,586.6c4.9-8.8,10.7-17.6,14.7-26.9c2.9-6.8,4.1-15-0.4-21.4c-1.1-1.6-3.7-0.1-2.6,1.5
			c5.2,7.3,1.7,16.4-2.1,23.5c-4,7.3-8.1,14.5-12.2,21.8C896.7,586.8,899.3,588.3,900.3,586.6z"/>
		<path id="Path_168_" class="st6" d="M907.4,554.9c7.3-9.7,13.2-33.1-3.8-36.9c-1.9-0.4-2.7,2.5-0.8,2.9c14.8,3.3,8.1,24.3,2,32.5
			C903.7,554.9,906.3,556.4,907.4,554.9L907.4,554.9z"/>
		<path id="Path_169_" class="st6" d="M899.5,546c6.9-9.9,7.4-23.5,2.1-34.2c-0.9-1.7-3.4-0.2-2.6,1.5c4.8,9.8,4.2,22.2-2.1,31.2
			C895.8,546,898.4,547.5,899.5,546z"/>
		<path id="Path_170_" class="st6" d="M893.6,538.3c2.8-8.8,3.7-18.4,1.7-27.5c-1.1-4.9-6-13.5-12.1-8.8c-5.7,4.4-3.1,16.5-2.5,22.4
			c0.6,5.9-0.1,10.1-3.2,15.2c-2.7,4.4-4.9,9-6.6,13.9c-0.7,1.8,2.2,2.6,2.9,0.8c2.3-6.5,6.4-11.8,9.1-18c2.5-5.8,0.8-12.1,0.4-18.2
			c-0.2-2.8-1-7.3,0.1-10c0.1-2.1,1.4-2.5,3.9-1.4c2.8-1.1,4.4-0.3,4.7,2.5c0.7,1.9,1,4.1,1.2,6.1c0.8,7.5,0,14.9-2.3,22.1
			C890.2,539.4,893,540.2,893.6,538.3L893.6,538.3z"/>
		<path id="Path_171_" class="st6" d="M902.7,513.3c-1.2-4.6-6.4-8.3-10.9-5.2c-1.6,1.1-0.1,3.7,1.5,2.6c2.8-1.9,5.7,0.6,6.5,3.4
			C900.3,516,903.2,515.2,902.7,513.3z"/>
		<path id="Path_172_" class="st6" d="M872.7,551.1c-1.6-5.9-5.5-13.4-12.1-14.6c-6.3-1.2-8.5,4.9-8.7,10c-0.5,9.6,4.6,16.2,7.1,25
			c2,7.1,1.4,14.2,8.6,18.4c1.7,1,3.2-1.6,1.5-2.6c-5.4-3.1-5.6-8.5-6.7-14c-0.8-4.4-2.9-8.1-4.7-12.2c-2.1-4.7-4.4-12-2.6-17.1
			c0.1-0.5,0.2-0.9,0.3-1.4c2.3-0.7,4.6-1.5,6.8-2.2c1.3,0.4,2.9,2.5,3.8,3.5c1.9,2.4,3,5,3.7,8C870.3,553.8,873.2,553,872.7,551.1
			L872.7,551.1z"/>
		<path id="Path_173_" class="st6" d="M867,588.4c4.2,34.7,8.7,70.7,5.6,105.6c-1.5,16.5-5.6,31.8-12.2,46.9
			c-5.4,12.4-9.3,24.1-6.7,37.7c0.4,1.9,3.3,1.1,2.9-0.8c-2.9-15.2,3.3-27.7,9-41.3c6-14.1,9-29.1,10.2-44.3
			c2.7-34.4-1.6-69.7-5.7-103.8C869.7,586.5,866.7,586.5,867,588.4L867,588.4z"/>
		<path id="Path_174_" class="st6" d="M897.3,584c-2.4,6.9-1.2,14.6-0.4,21.7c0.9,7.5,2.1,15,3.5,22.4c3.1,16.3,7,32.4,9.1,48.9
			c2.1,16.2,2.2,32.6,0.4,48.8c-1.8,16.1-4.9,33.7-13.9,47.5c-4.3,6.6-10.7,13-18.8,14.5c-8.7,1.7-16.6-3.5-20.7-11
			c-0.9-1.7-3.5-0.2-2.6,1.5c5.8,10.5,17.7,15.7,29,10.7c13.4-5.9,20.5-20.9,24.4-34.2c10.3-35,7.4-71.5,0.3-106.8
			c-2-10-4.2-20-5.8-30.1c-0.9-5.4-1.6-10.8-2.2-16.2c-0.5-5.7-1.3-11.7,0.6-17.2C900.9,583,898,582.2,897.3,584L897.3,584z"/>
		<path id="Path_175_" class="st11" d="M907.1,521.7c0.3,5,0.3,11.4-0.9,18.4c-3.2,19.2-12.7,31.3-17.1,36.1
			c-0.1,5.7-0.3,14.5,0,25.1c1.2,47.6,8.6,70.9,9.8,93.2c1.2,21.7-2.8,53.4-27.8,94.4c3.3,0.3,8.5,0.3,13.9-2.6
			c4.9-2.6,12.5-8.6,19.4-28.7c6.3-18.4,13.2-52.1,5.5-90.7c-3.4-16.8-8.6-30-11.3-58.2c-0.7-7.5-1-13.8-1.2-18.1
			c1.7-4,4.2-9.5,7.8-15.5c5.9-9.9,9.7-13.2,10.7-20.3c0.7-5-0.3-10.1-2.3-15.1c0.2-1.3,1-6.6-1.4-11.8
			C910.6,524.2,908.2,522.4,907.1,521.7L907.1,521.7z"/>
		<path id="Path_176_" class="st12" d="M897,598c-0.5,0.1,1.1,17.5,4.3,52.3c2.9,30.7,4.3,46,4.3,47.2c1,45.6-13,77.8-10.7,78.9
			c1.6,0.8,9.6-15.4,14.2-35c6.3-27.1,3.8-50.6,2.3-64.1c-1.4-11.9-1.9-8.6-9-49C898.9,608,897.5,597.9,897,598L897,598z"/>
		<path id="Path_177_" class="st13" d="M651.3,691c-9.5,19.3-12.2,36.3-14.7,52.9c-1.4,9.1-2.8,22-2.7,37.6
			c31.2,8.3,59,12.8,81.8,15.2c29.6,3.2,20.9-0.7,95.6,1.9c37.3,1.3,56.5,2.6,61.8-7.6c4.4-8.6-6.4-17.2-7-37
			c-0.5-15.9,5.8-28.9,10.8-37c-29.5-11.9-63.6-23.7-102-33.7c-38.2-10-73.6-16.4-105.1-20.4C664.8,668.8,657.6,678.2,651.3,691z"/>
		<path id="Path_178_" class="st9" d="M653.3,689.1c7.3,14.6,22.7,39.6,51.4,53.6c11.2,5.5,23.9,9,61.3,10.9
			c24.2,1.2,57.8,1.8,98.5-1.5c-0.6,8.7,1.2,14.9,2.9,19c2.6,6.1,6.2,9.6,5.8,16c-0.1,1.5-0.3,5.3-2.9,8.4
			c-3.6,4.2-9.5,4.6-12.4,4.7c-28.8,1.4-38.7,0.4-38.7,0.4c-24.2-2.6-45.7-2-63.5-1.5c-7.7,0.2-11.8,0.5-20.1,0.4
			c-4.6-0.1-17.3-0.4-35.7-2.9c-27.1-3.7-52.1-10-66-13.9c-0.3-17.9,1.3-32.7,2.9-43.4c2.5-16.4,5.5-25.5,6.6-28.4
			C646.6,701.7,650.3,694.3,653.3,689.1L653.3,689.1z"/>
		<path id="Path_179_" class="st11" d="M642.3,715.3c3.9,7.9,10.6,19.1,21.9,29.5c19,17.4,39.5,22,63.8,27.7
			c51.5,12.2,104,26.1,103.6,28.4c-0.2,1.4-19.8-1.8-53.6-2.2c-8.2-0.1-13.5-0.2-21.2,0c-15,0.3-19.1,1.1-28.1,0.7
			c-9.7-0.4-16.8-1.8-24.4-3.3c-30.5-6.1-60.9-12.8-70.7-15c0.1-6.4,0.5-13.1,1.1-20.1C636.2,744.3,639,728.9,642.3,715.3
			L642.3,715.3z"/>
		<path id="Path_180_" class="st14" d="M934.3,773.7c-21.2,3-33.3,3.6-53.1,9.2c-9.2,2.6-16.6,5.3-21.5,7.3
			c-3.1-8.7-6.8-22.8-5.2-40c0.9-10.2,3.4-18.7,6-25.1c5.5,1.4,12.4,2.7,20.5,3.2c10.1,0.6,18.7-0.2,25.2-1.3
			c2.5-9,4.9-17.9,7.4-26.9c4.5-1.2,9.1-2.5,13.6-3.7c0.4-2.5,0.9-5,1.3-7.5c5.6,2.6,14.5,6.8,25.6,11.5c20.9,9,23.9,9.3,28.4,13.3
			c12.1,10.9,17.9,32.6,9,45.1C986.1,766.3,968.8,768.8,934.3,773.7z"/>
		<path id="Path_181_" class="st6" d="M926.8,688.7c-0.7,4.7-1,9.4-0.8,14.2c0.1,1.9,3.1,1.9,3,0c-0.2-4.5,0.1-8.9,0.7-13.4
			C929.9,687.6,927,686.8,926.8,688.7L926.8,688.7z"/>
		<path id="Path_182_" class="st6" d="M959.4,714.2c0.8,3.7-1.5,7-4.7,8.5c-1.8,0.8-0.2,3.4,1.5,2.6c4.6-2.1,7.1-7,6.1-11.9
			C961.9,711.5,959,712.3,959.4,714.2L959.4,714.2z"/>
		<path id="Path_183_" class="st6" d="M948.1,713.2c1.1,0.1,2.3,0.4,3.2,1.2c0.2,0.2,0.4,0.4,0.6,0.6c0.6-0.5,0.7-0.8,0.2-0.7
			c-0.3-0.2-1.1-0.2-1.4-0.3c-0.5-0.2-1-0.3-1.5-0.6c-0.3-0.1-0.5-0.3-0.8-0.5c-0.8,0.5-0.9,0.9-0.2,1.1c0.4,0.4,1.2,0.8,1.7,1.1
			c0.6,0.4,1.1,0.7,1.7,1.1c1.6,1,2.8-1.1,1.8-2.4c-0.6-0.8-1.3-1.2-2.2-1.6c-1.8-0.7-2.6,2.2-0.8,2.9c0.4,0.2,0.6,0.5,0.9,0.8
			c0.6-0.8,1.2-1.6,1.8-2.4c-1.4-0.9-2.7-1.9-4.1-2.6c-1.1-0.6-2.5-0.4-3.2,0.7c-1.8,2.7,2.1,4.6,4.1,5.2c1.1,0.3,2.4,0.6,3.5,0.2
			c1.2-0.4,1.8-1.7,1.4-2.9c-0.8-2.6-4.3-3.7-6.7-3.9C946.1,710.1,946.2,713.1,948.1,713.2L948.1,713.2z"/>
		<path id="Path_184_" class="st7" d="M977.4,709.6c4.3,1.2,11.4,3.8,18.3,9.2c2.4,1.9,7.6,6,10.7,11.9c5.9,11.2,3.2,26.9-7.1,37.3
			c-10.1,10.1-26.3,13.7-41.4,9.2C964.4,754.7,970.9,732.2,977.4,709.6z"/>
		<path id="Path_185_" class="st6" d="M982.3,671.3c-9.4,34.8-18.8,69.6-28.2,104.4c-1.5,5.6,7.2,8,8.7,2.4
			c9.4-34.8,18.8-69.6,28.2-104.4C992.5,668.1,983.8,665.7,982.3,671.3z"/>
		<path id="Path_186_" class="st15" d="M961.9,754.4c-1.6-6.6-5.8-10.8-10.7-15.7c-10.4-10.4-15-8.3-21.5-15.5
			c-10.2-11.5-2.1-20.7-12.2-31.1c-8.6-8.8-21.6-9.5-24.6-9.6c-2.9-0.1-14.6-0.2-23.6,7.5c-7.8,6.7-10.7,16.8-9.3,17.6
			c0.5,0.3,2-0.4,6.8-5.5c-1.5,1.5-3.3,3.9-4.4,7.1c-1.2,3.8-1,7.5-0.4,7.6c0.5,0.1,0.7-2,2.8-3.4c1.2-0.8,2.6-1.1,3.6-1.1
			c-2.6,2.8-5,6.5-4.2,10.3c2,10.6,25.8,15.5,33.7,17.1c25.6,5.3,40.6,0.2,48.6,9.8c0.7,0.8,3.9,4.7,2.7,8.3
			c-1.6,4.6-9.9,7.2-14.9,5c-4.3-1.9-4.9-6.8-5.8-6.6c-1.1,0.3-0.5,8.5,4.3,16c1.8,2.7,3.2,4.9,6.1,6.4c5.1,2.5,11.6,1.2,15.5-1.2
			C962.7,772.7,963.7,761.6,961.9,754.4L961.9,754.4z"/>
		<path id="Path_187_" class="st16" d="M927.3,759.5c0-1.5,0.2-3.7,0.8-3.7c0.3,0,0.6,0.6,0.6,0.5c0,0-2.2-2.1-2.2-4.4
			c0-1.1,0.5-2,0.9-2.5c-9.6,2.8-21,5.5-34,7.3c-14.3,2-27.1,2.5-38,2.3c-0.5,4.1-0.8,9.9,0.6,16.8c1.1,5.6,3,10.2,4.7,13.6
			c15.5-6.7,27.5-9.5,35.6-10.9c3.8-0.6,12.8-2,17.2-2.6c8-1.2,14.6-2.1,19.1-2.7c-0.5-0.7-1.3-1.8-2.1-3.2
			C929.4,768.1,927.3,764.2,927.3,759.5L927.3,759.5z"/>
		<path id="Path_188_" class="st17" d="M1009.2,744.3c-3.2,8.9-11.9,14.8-21.4,14.7c-11.2-0.2-17.8-8.8-18.4-9.6
			c-2.6,9.6-5.1,19.3-7.7,28.9c2.4,0.5,5.7,1,9.7,0.9c12.6-0.3,21.2-6,23-7.3c2.8-1.9,12-8.9,14.3-20.8
			C1009.2,748.3,1009.2,745.9,1009.2,744.3L1009.2,744.3z"/>
		<path id="Path_189_" class="st8" d="M830.9,539.1c4.4,6.1,9.4,12.5,15.2,19.1c7.8,8.9,15.5,16.4,22.7,22.7
			c10.3-10,21.2-20.1,32.7-30.4c10.9-9.8,21.7-19,32.3-27.7c-2.5-5.1-5.9-11-10.4-17c-8.8-11.7-18.5-19.5-25.9-24.5
			c-16.9,11.9-34.7,26.1-52.3,43.2C840.2,529.5,835.5,534.3,830.9,539.1L830.9,539.1z"/>
		<path id="Path_190_" class="st6" d="M851.2,521.8c14.3-14.2,29.6-27.3,45.9-39.1c1.5-1.1,0.1-3.7-1.5-2.6
			c-16.5,12-32.1,25.2-46.5,39.6C847.7,521.1,849.8,523.2,851.2,521.8z"/>
		<path id="Path_191_" class="st6" d="M896.4,482.1c14.4,10.9,26.5,24.4,35.9,39.8c1,1.6,3.6,0.1,2.6-1.5
			c-9.7-15.9-22.2-29.6-37-40.9C896.4,478.4,894.9,481,896.4,482.1z"/>
		<path id="Path_192_" class="st6" d="M850.7,518.3c-7.3,6.3-14.3,13-20.9,20.1c-1.3,1.4,0.8,3.5,2.1,2.1
			c6.6-7.1,13.5-13.8,20.9-20.1C854.3,519.1,852.2,517,850.7,518.3z"/>
		<path id="Path_193_" class="st6" d="M830.2,541.2c11.4,14,23.6,27.2,36.7,39.7c1.4,1.3,3.5-0.8,2.1-2.1
			c-13-12.5-25.3-25.7-36.7-39.7C831.1,537.5,828.9,539.7,830.2,541.2z"/>
		<path id="Path_194_" class="st6" d="M870.2,581.5c21.1-20.1,42.8-39.5,65-58.3c1.5-1.2-0.7-3.4-2.1-2.1
			c-22.2,18.8-43.9,38.3-65,58.3C866.7,580.7,868.8,582.8,870.2,581.5z"/>
		<path id="Path_195_" class="st6" d="M842.6,540.2c6.8,8.8,13.9,17.4,21.2,25.7c1.3,1.5,3.4-0.7,2.1-2.1
			c-7.3-8.4-14.4-17-21.2-25.7C843.6,536.5,841.5,538.7,842.6,540.2z"/>
		<path id="Path_196_" class="st6" d="M844.8,540.2c15.2-16.7,33.1-30.4,50.9-44.1c1.5-1.2,0-3.8-1.5-2.6
			c-18.1,13.8-36.2,27.7-51.5,44.5C841.3,539.5,843.5,541.6,844.8,540.2z"/>
		<path id="Path_197_" class="st6" d="M896,496.1c9.2,6.9,17.6,14.6,25.3,23.1c1.3,1.4,3.4-0.7,2.1-2.1
			c-7.9-8.7-16.5-16.5-25.9-23.6C895.9,492.4,894.4,495,896,496.1z"/>
		<path id="Path_198_" class="st6" d="M865.6,566.7c5.1-0.2,9-2.7,13-5.7c5.2-4,10.3-8.1,15.3-12.4c10.6-8.9,20.7-18.3,30.4-28
			c1.4-1.4-0.8-3.5-2.1-2.1C913.8,527,905,535.1,896,543c-4.4,3.8-8.9,7.5-13.4,11.2c-4.9,3.9-10.3,9.4-17,9.6
			C863.7,563.7,863.7,566.7,865.6,566.7L865.6,566.7z"/>
		<path id="Path_199_" class="st12" d="M891.4,483c-2.4,4.5-5.9,11-10,18.9c-10.2,19.8-15.4,29.8-17,36.1
			c-2.1,8.2-3.7,22.6,4.8,42.9c-12.7-13.5-25.4-27.1-38.1-40.6C851.2,521.2,871.3,502.1,891.4,483L891.4,483z"/>
		<path id="Path_200_" class="st5" d="M881,515.4c4.8,4.9,9.3,10.1,13.5,15.5c1.2,1.5,3.3-0.6,2.1-2.1c-4.2-5.4-8.7-10.6-13.5-15.5
			C881.8,511.9,879.7,514,881,515.4z"/>
		<path id="Path_201_" class="st5" d="M882.2,515c2.3-1.5,4.7-2.9,7-4.4c1.2-0.8,2.5-2,3.9-2.4c1.9-0.7,0.7-1.1,2.2-0.3
			c1.8,0.9,3.8,4.8,5.1,6.4c1.9,2.4,3.7,4.7,5.6,7.1c1.2,1.5,3.3-0.6,2.1-2.1c-2.4-3.1-4.9-6.2-7.3-9.3c-1.2-1.6-3.1-5.4-5.2-5.9
			c-1.5-0.3-2.8,0.7-4,1.5c-3.7,2.2-7.3,4.6-10.9,6.8C879.1,513.5,880.6,516.1,882.2,515L882.2,515z"/>
		<path id="Path_202_" class="st5" d="M896.3,530.8c4.2-1.8,7.9-4.4,11.1-7.6c1.4-1.4-0.8-3.5-2.1-2.1c-3.1,3-6.6,5.4-10.5,7.1
			C893,529,894.5,531.6,896.3,530.8z"/>
		<path id="Path_203_" class="st5" d="M889.5,520.7c1.3-1.3,2.5-2.6,4.5-2.3c1.1,0.2,1.5,0.4,2.7,0.2c1-0.2,1.3-1.4,0.9-2.2
			c-0.9-1.5-1.7,1-1.7,1.9c0,0.8,0.3,1.7,0.9,2.3c1.5,1.6,3.7,1.2,5.5,0.4c1.8-0.7,1-3.6-0.8-2.9c-0.7,0.3-1.4,0.5-2.2,0.6
			c-0.3-0.7-0.3-1.4,0-2.1c0-0.7,0.1-1.3-0.1-2c-0.3-1-1.1-1.9-2.2-2c-3.2-0.4-3.2,3.4-2,5.4c0.3-0.7,0.6-1.5,0.9-2.2
			c-0.8,0.1-1.8-0.5-2.6-0.5c-0.6,0-1.3,0.2-1.9,0.4c-1.6,0.6-2.8,1.8-3.9,3C886,520,888.2,522.1,889.5,520.7L889.5,520.7z"/>
		<path id="Path_204_" class="st5" d="M888,514.3c1.4,0.1,2.7,0,4-0.3c1.9-0.4,1.1-3.3-0.8-2.9c-1.1,0.2-2.1,0.3-3.2,0.2
			c-0.8-0.1-1.5,0.7-1.5,1.5C886.5,513.7,887.2,514.2,888,514.3L888,514.3z"/>
		<path id="Path_205_" class="st5" d="M865.1,528.7c4.6,5.3,9.2,10.5,13.9,15.6c1.3,1.4,3.4-0.7,2.1-2.1
			c-4.7-5.1-9.4-10.3-13.9-15.6C866,525.1,863.9,527.2,865.1,528.7z"/>
		<path id="Path_206_" class="st5" d="M867.5,529.1c1-1.8,1.5-3.3,3.6-3.4c1.8-0.1,2.9,1.3,4.1,2.4c1.7,1.5,3.1,3.3,4.8,4.9
			c1.3,1.2,2.7,2.4,4.2,3.4c1.3,0.9,2.5,1.4,1.1,3.1c-0.8,1-2.9,1.4-4.1,1.8c-1.8,0.6-1,3.5,0.8,2.9c2.7-0.9,7-2.3,7.9-5.5
			c0.4-1.3,0.1-1.9-0.8-2.8c-1.9-1.7-4.5-2.8-6.4-4.6c-3.2-2.9-6-7.2-10.1-8.9c-3.9-1.5-5.9,2.1-7.6,5.1
			C864,529.2,866.6,530.8,867.5,529.1z"/>
		<path id="Path_207_" class="st8" d="M837,517.5c-3.4,1.4-3.2,2.9-7.5,5.7c-3.5,2.3-4.7,2-6.1,3.9c-1.6,2.1-1.8,4.5-1.8,6.1
			c-1.4,0-3.9,0.3-6.6,1.8c-0.8,0.4-6,3.3-7.5,9.6c-1,4.3,0.3,7.9,0.9,9.2c-1.4,1-3.5,2.8-4.4,5.7c-1.1,3.6,0.3,6.9,2.2,10.5
			c5.2,10.1,9.9,14.3,15.3,22.8c1.6,2.5,3.9,6.4,6.1,11.4c0.1,3.8,0.1,10-0.9,17.5c-1.5,11.2-4.4,19.3-5.3,21.9
			c-4.5,13-12.4,43.4-13.2,71.3c-0.4,14.3-0.8,37.2,11.8,60.6c4.7,8.8,11.7,21.2,25.9,26.3c2.2,0.8,18.7,6.7,30.2-2.6
			c4.2-3.4,6.3-7.6,7.5-10.5c0.3-1.5,0.5-3.8,0.4-6.6c-0.4-12.1-7.6-20.8-10.1-24.1c-8.7-11.5-11.3-24.3-15.8-46
			c-2.8-13.4-2.2-25-0.9-47.8c0.9-15.6,2.7-36.7,7-61.8c2.1-0.5,5-1.5,7-3.9c3-3.7,1.2-7.1,3.5-13.6c1.7-4.9,3.1-4,6.1-10.5
			c2.2-4.7,4.1-9,3.1-14c-0.2-1-1.5-6.9-5.7-8.3c-5.4-1.9-11.6,4.9-13.1,6.6c-3.1,3.4-4.5,7-5.3,9.2c-3.1-4-6.3-8.8-9.2-14.5
			c-1.3-2.6-2.5-5.1-3.5-7.5c0.5-2.2,1.2-5.4,1.7-9.3c0.6-5.2,0.9-7.9,0.1-11.3c-0.6-2.3-1.8-7.4-5.7-8.8
			C841.1,515.7,838.4,516.8,837,517.5L837,517.5z"/>
		<path id="Path_208_" class="st6" d="M827.5,599.2c-5-7-10.1-14-15-21.1c-4.7-6.8-10.2-16.4-3.4-23.9c1.3-1.4-0.8-3.6-2.1-2.1
			c-5.3,5.8-4.7,13.7-1.4,20.4c5,10,12.9,19.1,19.4,28.2C826,602.3,828.6,600.8,827.5,599.2z"/>
		<path id="Path_209_" class="st6" d="M818.1,567.2c-4.8-5-8.8-11.8-8.7-18.9c0.1-6.9,5.1-12.1,11.7-13.2c1.9-0.3,1.1-3.2-0.8-2.9
			c-7.1,1.2-12.8,6.7-13.8,13.9c-1.2,8.6,3.7,17.3,9.5,23.3C817.3,570.8,819.4,568.6,818.1,567.2L818.1,567.2z"/>
		<path id="Path_210_" class="st6" d="M828.2,558.3c-7.7-8.6-8.6-21.2-2.5-30.9c1-1.6-1.6-3.1-2.6-1.5c-6.9,10.9-5.6,25,2.9,34.5
			C827.4,561.9,829.5,559.8,828.2,558.3z"/>
		<path id="Path_211_" class="st6" d="M836.3,551.7c-3.2-7.8-4.4-16.5-2.4-24.8c1.1-4.7,7.1-13.6,11.9-6.4c2,3,1.3,7.5,1,10.9
			c-0.5,6.4-2.8,13.4,0.5,19.4c1.6,2.8,4,5.2,5.8,7.8c2.3,3.2,4.1,6.7,5.8,10.3c0.8,1.8,3.4,0.2,2.6-1.5c-2.1-4.6-4.7-8.9-7.8-12.9
			c-1.8-2.4-4.1-4.6-4.9-7.6c-0.8-2.9,0-6.1,0.3-9.1c0.8-6.1,3.3-17.5-3.3-21.6c-5.9-3.7-12.2,1.8-14.1,7.2
			c-3.4,9.3-2,20.2,1.6,29.2C834.1,554.3,837,553.5,836.3,551.7z"/>
		<path id="Path_212_" class="st6" d="M824.7,528.3c1.2-3.5,5.6-5.1,8.9-3.4c1.7,0.9,3.2-1.7,1.5-2.6c-5-2.7-11.4-0.1-13.3,5.2
			C821.1,529.3,824,530.1,824.7,528.3z"/>
		<path id="Path_213_" class="st6" d="M863,566.1c1.1-3.2,2.7-6,5.1-8.3c1-0.9,2.1-1.8,3.3-2.5c2.8-1.6,4-1.6,7.1-0.5
			c3.6,1.3,4.1,2.1,4.4,5.9c0.1,1.2,0.1,2.4,0,3.6c-0.3,3.8-1.7,7.4-3.5,10.7c-2.1,3.8-4.7,7.3-5.9,11.6c-1.8,6.5-1.9,11.8-8.9,14.9
			c-1.8,0.8-0.2,3.4,1.5,2.6c3-1.3,5.5-3.3,7.2-6.1c2.3-3.7,2.1-8.1,3.5-12.1c1.6-4.4,4.7-8.1,6.7-12.3c1.8-4,2.7-8.4,2.4-12.8
			c-0.4-6-3.9-11-10.5-10c-7.5,1.1-13,7.8-15.3,14.6C859.4,567.1,862.3,567.9,863,566.1L863,566.1z"/>
		<path id="Path_214_" class="st6" d="M863.6,602.2c-2.8,18.2-5.1,36.5-6.7,54.8c-1.4,16.4-2.3,32.9-0.7,49.4
			c1.5,15.1,5.3,29.8,12.4,43.2c7.2,13.7,16.1,26.2,12.1,42.5c-0.5,1.9,2.4,2.7,2.9,0.8c3.4-14.1-1.8-25.6-8.5-37.7
			c-8-14.3-13.4-28.9-15.5-45.3c-2-16.4-1.3-32.9,0-49.3c1.6-19.2,3.9-38.4,6.9-57.5C866.8,601.1,863.9,600.3,863.6,602.2
			L863.6,602.2z"/>
		<path id="Path_215_" class="st6" d="M825.1,599.3c2,4.4,1.5,9.3,1,14c-0.6,5.3-1.4,10.6-2.5,15.9c-1.8,9.3-4.3,18.5-6.7,27.7
			c-4.7,18.1-9.2,36.2-9.8,54.9c-0.6,18.5,1.8,37.6,7.9,55.1c5.1,14.6,14.1,28.7,28.6,35.2c13.7,6.1,30.6,3.2,39.4-9.6
			c1.1-1.6-1.5-3.1-2.6-1.5c-9.7,14-29,13.7-42,4.7c-14-9.7-20.4-26.4-24.2-42.3c-4.2-17.6-5.3-36-3.3-53.9c2-17.6,7-34.6,11.3-51.7
			c2.3-9.2,4.5-18.4,5.8-27.8c1.1-7.3,2.6-15.3-0.6-22.2C826.9,596,824.3,597.6,825.1,599.3L825.1,599.3z"/>
		<path id="Path_216_" class="st11" d="M815.9,535.8c-0.4,5-0.4,11.4,1.1,18.4c4.1,19.2,16.2,31.3,21.7,36.1
			c0.2,5.7,0.3,14.5,0,25.1c-1.5,47.6-10.9,70.9-12.5,93.2c-1.5,21.7,3.6,53.4,35.4,94.4c-4.3,0.3-10.8,0.3-17.7-2.6
			c-6.2-2.6-15.9-8.6-24.7-28.7c-8-18.4-16.8-52.1-7-90.7c4.3-16.8,11-30,14.4-58.2c0.9-7.5,1.3-13.8,1.5-18.1
			c-2.2-4-5.4-9.5-10-15.5c-7.5-9.9-12.4-13.2-13.6-20.3c-0.9-5,0.3-10.1,2.9-15.1c-0.3-1.3-1.2-6.6,1.8-11.8
			C811.4,538.4,814.5,536.6,815.9,535.8L815.9,535.8z"/>
		<path id="Path_217_" class="st12" d="M828.8,612.1c0.7,0.1-1.4,17.5-5.5,52.3c-3.7,30.7-5.5,46-5.5,47.2
			c-1.3,45.6,16.5,77.8,13.6,78.9c-2.1,0.8-12.2-15.4-18.1-35c-8.1-27.1-4.9-50.6-2.9-64.1c1.7-11.9,2.4-8.6,11.4-49
			C826.3,622.1,828.1,612,828.8,612.1z"/>
		<path id="Shape" class="st8" d="M349.3,897.9c-0.9-2.4-2.6-5.9-5.6-9.4c-3.3-3.9-6.1-5.3-8.3-6.9c-3.9-3-5.4-6.7-11.8-34.4
			c-3-13.2-3.3-14.7-2.8-17.4c1.3-7,5-9.4,6.9-18.4c0.9-4.3,0.9-7.4,0.7-13.2c-0.3-8.8-0.5-17.8-4.2-28.1c-3.3-9.5-7.1-20-17-24.7
			c-6.9-3.2-13.7-2.1-19.8-1c-12.3,2.2-15,6.8-27.8,12.5c-6.4,2.8-24.8,11-46.6,9.7c-9.7-0.6-15.1-2.7-21.2,1
			c-6.4,4-9.1,11.6-11.1,17.4c-2.5,7.1-3.1,13.3-3.1,17.4c-1.3,4.3-3.3,10.8-5.6,18.8c-6.4,22.8-6.4,27-10.8,39.3
			c-4.4,12.5-7.2,20.3-13.9,29.2c-2.2,2.9-2.3,2.6-22.6,22.2c-10.4,10-15.9,15.5-18.4,24.7c-1,3.6-2.6,9.3,0.3,13.2
			c0.9,1.1,3.8,4.4,21.5,3.8c8.2-0.3,9.3-1,17.7-1.7c15.5-1.3,27.6,0,33.7,0.7c5.8,0.6,10.6,1.5,13.9,2.1c3.2,0.3,8,0.9,13.6,2.4
			c10.1,2.8,13.2,5.9,22.2,9.7c5.5,2.3,16.8,7,30.6,6.6c9.4-0.3,17-2.8,21.9-4.9c7.2,1.1,13.1,0.6,17,0c6.8-1.1,12-3.3,16.3-5.2
			c5.2-2.3,4.9-2.8,11.5-5.9c11.5-5.6,13.4-4.6,16.7-7.6c2.4-2.2,4.6-5.7,5.9-20.2C350,921.9,350.5,911.1,349.3,897.9L349.3,897.9z
			 M184,925.5c0.8,5.5,2.4,9.9,0,12.3c-3.1,3-8.4-1.3-21.8-0.6c-2.2,0.1-3.5,0.3-10,0.8c-5.7,0.4-5.5,0.3-9.1,0.6
			c-5.8,0.5-6.3,0.8-8.7,0.6c-4.3-0.4-6.5-0.5-8.3-2.1c-2.9-2.5-3.4-7.1-2.8-10.2c1-6.2,6.1-8.8,15.2-16.3
			c3.8-3.1,9.3-7.9,15.5-14.6c3.7-4.9,7.3-10,11-15.3c1.7-2.5,3.3-4.9,4.9-7.4c1.5-4.1,3.4-9.8,5.3-16.7c5-18.2,5.1-29.5,6.8-29.6
			c2,0,3.7,14.8,4.4,22.9c0.8,10.4,0.6,19,0.2,24.8c1,1.9,2.4,5.1,2.8,9.3c0.5,4.7-0.4,8.5-1.1,10.6
			C182.9,908.1,182.9,918.4,184,925.5L184,925.5z"/>
		<path id="Path_218_" class="st6" d="M184.5,773c-13.3,21.6-4.8,47-1,70.1c1.1,6.8,1.7,13.6,1.4,20.4c-0.2,3.2-0.6,6.4-0.2,9.7
			c0.4,3,1.5,5.7,2.2,8.6c1.9,7.5-0.8,15.1-2.3,22.4c-1.3,6.3-2.6,12.6-2.8,19c-0.4,10.1,2.1,20.9,9.4,28.2
			c8.1,8.1,19.9,6.8,29.6,11.9c10.1,5.4,19.6,9.9,31.2,11c5.7,0.5,11.6,0.3,17.2-0.7c6-1,11.6-3.9,17.6-4.9
			c5.7-0.9,11.2,1.1,16.9-0.4c6.4-1.6,12.6-5.2,18.6-7.9c6.2-2.8,12.4-5.7,18.7-8.5c4.1-1.9,7.8-3.6,8.8-8.4
			c1.3-6,0.6-13.1,0.7-19.2c0.2-6.4,0.7-12.8,0.3-19.2c-0.2-4.1-0.8-8.2-2.5-11.9c-2.6-5.8-8.1-7.6-11.7-12.4
			c-7.1-9.8-10.7-23.5-12.7-35.3c-0.6-3.7-1-7.4-1.3-11.1c-0.2-3.8,1.1-6.2,2.5-9.5c2-4.7,3.3-9.7,3.9-14.7
			c1.6-11.6,0.1-23.5-2.6-34.8c-2.3-9.6-5.4-20.3-13.1-27.1c-20.2-17.8-46.7,3.1-65.4,11.9c-6.9,3.2-14.1,5.3-21.7,5.3
			c-7.3,0-14.5-1.4-21.8-0.9c-9.7,0.6-19.8,5-23.1,14.7c-0.6,1.8,2.3,2.6,2.9,0.8c4-11.7,17.9-13,28.4-12.4
			c11.2,0.7,21.4,1.4,32-2.8c18.2-7.2,37.1-25.4,58.2-19c11.6,3.5,16.5,14.8,19.5,25.6s4.9,22,4.3,33.2c-0.3,5.5-1.3,11-3.1,16.3
			c-0.8,2.4-1.9,4.8-3.1,7.1c-1.3,2.6-1,4.5-0.8,7.5c0.7,10.8,3,21.4,6.9,31.5c1.7,4.4,3.6,8.8,5.9,13c2.5,4.4,5.9,6.2,9.4,9.6
			c8,7.6,5.9,21.1,5.6,31c-0.2,6.3-0.4,12.6-0.6,18.9c-0.1,4.2-1,6.6-4.6,8.7c-2.9,1.7-6.2,2.9-9.3,4.2c-5.6,2.6-11.3,5.1-16.9,7.7
			c-6.4,2.9-12.8,6.6-20.1,6.2c-4.8-0.2-8.7-0.8-13.4,0.5c-5.8,1.7-11.3,3.8-17.3,4.5c-11.5,1.4-23.4-0.4-33.8-5.4
			c-4.4-2.1-8.5-4.9-13-6.9c-4.7-2.1-9.6-2.6-14.6-3.8c-11.8-2.8-18.1-14-19.1-25.4c-1.2-13.6,4-26.3,5.6-39.6
			c0.9-6.7-2.6-12.3-3.1-18.9c-0.4-6.7,0.7-13.3,0-20.1c-2.5-25.1-15-53-0.5-76.7C188.2,772.8,185.6,771.3,184.5,773L184.5,773z"/>
		<path id="Path_219_" class="st6" d="M186.4,772.7c17.5-2.6,31.2,11.4,38.5,25.6c7,13.4,10.6,28.3,18.3,41.4
			c6.5,11,16,20.2,28.8,23c11.3,2.5,23.8,0.1,33.1-6.9c12.5-9.4,17.9-24.9,20.7-39.7c0.4-1.9-2.5-2.7-2.9-0.8
			c-2.6,13.5-7.2,28-18.2,37c-11.1,9.1-27.5,11-40.4,4.5c-26.7-13.3-26.9-49.6-43.9-71c-8.4-10.6-21.2-18-35-16
			C183.7,770.1,184.5,773,186.4,772.7L186.4,772.7z"/>
		<path id="Path_220_" class="st6" d="M292.1,868.1c0.1,0.2,0.2,0.3,0.3,0.5c0.1-0.6,0.2-1.2,0.2-1.8c-0.2,0.2-0.3,0.3-0.5,0.5
			c0.6-0.1,1.2-0.2,1.8-0.2c-1.7-0.9-2.5-4.7-3.1-6.4c-0.9-2.6-1.5-5.4-2-8.1c-0.3-2.1-1.7-17.8,2.7-16.3c1.3,0.5,2.3,5.9,2.7,7.3
			c0.7,2.7,1.1,5.5,1.4,8.3c0.3,2.7,0.3,5.4,0.4,8c0,1.2,0.1,2.4,0.1,3.6c0,0.6,0,1.2-0.1,1.8c0.2,0.7-0.1,1.2-0.8,1.5
			c0.2-1.9-2.8-1.9-3,0c-0.2,2,1.4,3.6,3.5,3.4c2.9-0.3,3.3-3.5,3.3-5.8c0.2-5.4-0.1-11.1-0.9-16.4c-0.6-4.4-1.5-10.7-4.7-14.1
			c-5.9-6.4-7.9,6.1-8,9.5c-0.3,5.3,0.4,10.6,1.8,15.6c0.9,3,2.2,9.1,5.3,10.7c0.6,0.3,1.3,0.3,1.8-0.2c0.2-0.2,0.3-0.3,0.5-0.5
			c0.5-0.5,0.6-1.3,0.2-1.8c-0.1-0.2-0.2-0.3-0.3-0.5C293.7,864.9,291.1,866.4,292.1,868.1L292.1,868.1z"/>
		<path id="Path_221_" class="st6" d="M268.1,922.3c0.5,16,1.9,32,4.2,47.8c0.3,1.9,3.2,1.1,2.9-0.8c-2.2-15.6-3.6-31.3-4.1-47
			C271,920.4,268,920.4,268.1,922.3L268.1,922.3z"/>
		<path id="Path_222_" class="st6" d="M270.2,923c7.1-10,19.8-14.2,30.8-18c12.1-4.2,24.4-7.4,37-9.7c1.9-0.3,1.1-3.2-0.8-2.9
			c-14.4,2.6-28.6,6.5-42.3,11.6c-10.3,3.9-20.8,8.3-27.4,17.5C266.5,923.1,269.1,924.6,270.2,923z"/>
		<path id="Path_223_" class="st6" d="M270.7,923.6c11.8,6.3,23.3,11.1,36.9,7.5c13-3.5,25.1-10.8,35.3-19.3
			c1.5-1.2-0.6-3.3-2.1-2.1c-9.5,7.9-20.5,14.5-32.3,18.1c-13.4,4.1-24.5-0.3-36.3-6.7C270.5,920.1,269,922.7,270.7,923.6
			L270.7,923.6z"/>
		<path id="Path_224_" class="st6" d="M317.3,921.2c0.8,3.9,1.6,7.9,2.4,11.8c0.4,1.9,3.3,1.1,2.9-0.8c-0.8-3.9-1.6-7.9-2.4-11.8
			C319.8,918.5,316.9,919.3,317.3,921.2z"/>
		<path id="Path_225_" class="st6" d="M324,918.4c0.4,3.7,0.7,7.4,1.1,11.1c0.2,1.9,3.2,1.9,3,0c-0.4-3.7-0.7-7.4-1.1-11.1
			C326.8,916.5,323.8,916.4,324,918.4z"/>
		<path id="Path_226_" class="st6" d="M187.1,896.7c-1.9,5.5,0,10.5,6.5,9.4c1.6-0.3,3-1,4.6-1.5c0.9-0.3,2.2-0.8,3.2-0.7
			c5.1,0.7,2.2,2.4,3.5,4.2c1.5,2,2.4,3,5.1,3c3.6-0.1,10.7-3.5,13.1,0.9c0.9,1.8,0,6.6,0,8.8c0,2.6,0.1,5.2,0.1,7.8
			c0.2,11.4,0.5,22.8,0.9,34.1c0.1,1.9,3.1,1.9,3,0c-0.7-17.5-1-35.1-1.1-52.7c0-0.5-0.3-1.1-0.7-1.3c-3.3-1.5-6.6-2.2-10.2-1.7
			c-2.5,0.3-3.6,1.3-6-0.1c-2.3-1.3-1.5-2.1-2.9-3.9c-1.5-1.9-3.7-2.3-6-2c-1.6,0.2-2.9,0.9-4.4,1.4c-0.8,0.3-1.8,0.8-2.7,0.8
			c-2.2-0.1-3.8-3.5-3-5.6C190.6,895.7,187.7,894.9,187.1,896.7L187.1,896.7z"/>
		<path id="Path_227_" class="st6" d="M180.5,797.6c0.1-11.5,3.8-32.3,20.2-28.3c1.9,0.5,2.7-2.4,0.8-2.9c-6.9-1.7-13.7,1.3-18,6.8
			c-5.4,6.8-6,16-6,24.4C177.5,799.6,180.5,799.6,180.5,797.6z"/>
		<path id="Path_228_" class="st6" d="M177.8,791.3c-2.2,4.6,0.9,9.3,3.7,13.1c2.9,4,7.3,7.6,12.5,6.5c2.9-0.6,4.9-3.2,7.8-3.7
			c3.2-0.7,6.3,2.1,9.5,2c6.8-0.3,10.9-6.8,15.8-10.4c1.5-1.1,0.1-3.7-1.5-2.6c-3.9,2.8-6.9,7.2-11.4,9.1c-4.7,2-7.5-1.5-12-1.2
			c-4.5,0.3-7.1,4.9-11.9,3.7c-4-1-12-10.2-9.8-15C181.2,791.1,178.6,789.5,177.8,791.3L177.8,791.3z"/>
		<path id="Path_229_" class="st6" d="M178.6,789.5c-4.8,21-10.4,41.8-16.7,62.3c-3,9.7-5.8,19.8-10.8,28.8
			c-4.3,7.7-10.2,14.2-16.5,20.3c-11,10.6-23.7,20.6-29.9,35c-2.5,5.8-3.2,11.8,2.5,15.9c6.3,4.6,15.6,4.4,22.9,3.7
			c11.2-1.1,22.3-4.6,33.6-3.7c10.8,0.9,21.1,5.3,31.9,2.1c1.8-0.6,1.1-3.4-0.8-2.9c-9.7,2.9-19.2-0.8-28.9-2c-8-1-16,0.3-23.8,1.6
			c-9.4,1.6-20,3.9-29.3,0.6c-5.8-2-8.3-6.3-6.2-12.2c1.4-3.9,3.5-7.6,5.9-10.9c8.5-12.2,20.9-21,30.9-31.9
			c11.2-12.3,16.3-27,21.2-42.7c6.4-20.9,12.1-42,17-63.3C182,788.4,179.1,787.6,178.6,789.5L178.6,789.5z"/>
		<path id="Path_230_" class="st6" d="M178.7,822.7c-1.8,18.9-3.8,38.3-13.1,55.3c-4.1,7.6-9.4,14.5-15.6,20.4
			c-5.7,5.4-12.3,9.7-18.2,14.8c-4.4,3.8-10.7,9.5-11.1,15.8c-0.4,5.7,4.4,10.2,9.5,11.7c8.2,2.5,18.1-0.5,26.5-1
			c9.8-0.5,19.7-0.2,29.5,0.8c1.9,0.2,1.9-2.8,0-3c-9.1-1-18.3-1.3-27.5-0.9c-3.9,0.2-7.9,0.5-11.8,0.9c-4.6,0.5-9.5,1.6-14.1,0.7
			c-5.7-1.1-10.6-5.6-8.2-11.8c1.5-3.7,4.7-6.9,7.6-9.6c5.3-5,11.5-8.9,16.9-13.7c10.3-8.9,18.4-20.4,23.5-33
			c6.1-15.1,7.6-31.5,9.2-47.6C181.9,820.8,178.9,820.8,178.7,822.7L178.7,822.7z"/>
		<path id="Path_231_" class="st6" d="M204.5,908c0.9,8.9,2.3,17.6,4.3,26.3c0.4,1.9,3.3,1.1,2.9-0.8c-1.9-8.4-3.3-16.9-4.2-25.6
			C207.3,906.1,204.3,906.1,204.5,908z"/>
		<path id="Path_232_" class="st6" d="M229.5,781.7c16,12.3,41.8,19.4,60.5,9c1.7-0.9,0.2-3.5-1.5-2.6c-17.8,9.8-42.4,2.6-57.4-9
			C229.4,777.9,227.9,780.5,229.5,781.7z"/>
		<path id="Path_233_" class="st6" d="M180.8,794.5c-0.6-7.2,0.8-15.6,5.8-21.1c5-5.4,12.8-4.9,19.6-4.9c12.5,0.2,25.1,1.5,37-2.9
			c1.8-0.7,1-3.6-0.8-2.9c-15.3,5.7-31,1.2-46.7,3.2c-13.7,1.8-18.9,16.2-17.9,28.6C177.9,796.4,180.9,796.5,180.8,794.5
			L180.8,794.5z"/>
		<path id="Path_234_" class="st6" d="M181.4,797.4c1-6.9,3.2-13.4,7-19.3c2-3.1,4.1-6,7.6-7.3c3.4-1.3,7.4-0.8,11-0.8
			c12.1,0.2,24.5,0.6,35.5-5.2c1.7-0.9,0.2-3.5-1.5-2.6c-7.2,3.8-15.1,4.8-23.1,4.9c-6.8,0.1-14.1-1.1-20.8,0.2
			c-11.7,2.3-17.1,19.1-18.6,29.2C178.2,798.4,181.1,799.3,181.4,797.4L181.4,797.4z"/>
		<path id="Path_235_" class="st6" d="M180.5,794.8c0.7-9.1,1.8-20.8,10.8-25.8c4.9-2.7,11.3-2.1,16.7-2.2c4.7,0,9.4,0.1,14.2,0
			c9.1-0.2,18.2-0.9,26.9-3.9c8.3-2.9,16-7.4,23.5-11.9c1.7-1,0.2-3.6-1.5-2.6c-9.1,5.4-18.4,10.9-28.8,13.3
			c-11.5,2.7-23.4,2-35.1,2.1c-8.6,0.1-16.9,0.1-22.7,7.4c-5.3,6.7-6.1,15.4-6.8,23.6C177.4,796.7,180.4,796.7,180.5,794.8
			L180.5,794.8z"/>
		<path id="Path_236_" class="st18" d="M248.9,763.9c4.3,4-1.3,11.6,2.6,18.4c5.1,8.8,19.8,9.9,31,9.4c-5.9,1.6-14.9,5.3-19.9,13.6
			c-8.8,14.6-2.7,39,18.4,56.2c1.9,15,3.8,30.1,5.8,45.1c-5.6,4.9-11.2,9.8-16.8,14.7c0.2,16.8,0.3,33.6,0.5,50.4
			c-5,1.8-12.8,3.8-22,2.6c-9.2-1.1-11.3-4.3-28.9-11.5c-16.3-6.7-18.7-5.6-24.1-10.5c-10-8.9-11.9-21.4-12.1-22.6
			c-1.3-9.2,2.4-10.4,4.2-28.9c0.9-9.6,0.7-17.2,0.5-19.9c-0.4-8.9-1.5-12.2-2.6-22c-1.4-11.7-0.7-14.1-1.6-25.2
			c-2.2-28.6-8.1-33.8-4.2-48.3c1.6-5.9,3.5-13.3,10-17.3c8.1-5.1,14,0.9,31-0.5C237,766.2,244.5,759.6,248.9,763.9L248.9,763.9z"/>
		<path id="Path_237_" class="st12" d="M193.3,770.7c-11.1,2.1-18.8,19.5-13.6,29.9c1.7,3.4,5.6,7.8,10.5,8.4c4,0.5,5-2.1,11-2.6
			c6.1-0.5,7.2,1.9,12.1,1c3.6-0.6,8.9-3.1,10.5-7.3c2.8-7.5-7.4-16.6-11-19.9C207.1,775.1,200.7,769.3,193.3,770.7z"/>
		<path id="Path_238_" class="st19" d="M186.5,837.4c2.4-0.4,7.9,32.5,19.4,64.6c10.8,29.9,24.5,52.8,35.2,68.2
			c-8.6-4.3-15.9-6.9-21-8.4c-6.7-2-11.6-2.8-18.4-6.3c-5-2.6-8.7-5.4-11-7.3c-2.2-2.8-5.3-7.4-6.3-13.6c-0.4-2.3-0.3-3.4,0.5-13.6
			c1.1-14.8,1.1-15.3,1.6-17.8c1.5-8.2,2.8-8.1,3.1-13.6c0.4-5.2-0.7-6.2-2.1-16.3c-1.2-8.8-1.4-15.5-1.6-19.9
			C185.7,843.4,185.5,837.5,186.5,837.4L186.5,837.4z"/>
	</g>
</g>
<sodipodi:namedview  bordercolor="#666666" borderopacity="1.0" fit-margin-bottom="20" fit-margin-left="20" fit-margin-right="20" fit-margin-top="20" id="base" pagecolor="#ffffff" showgrid="false">
	</sodipodi:namedview>
<polygon class="st8" points="405.6,457.7 355.9,461.8 371.7,410 382.7,406.5 396.6,402.6 "/>
<polygon class="st8" points="116.8,341.9 117,363.6 87,363.6 87,350.3 94.6,348.1 108.7,344.1 "/>
<polygon class="st20" points="87,350.3 87,363.6 117,363.6 116.8,341.9 "/>
<polyline class="st20" points="117.9,363.5 148.2,363.5 148.3,329.7 117.9,341.6 117.9,363.4 "/>
<polygon class="st20" points="149.2,363.5 179.5,363.5 179.5,314.3 149.2,329.5 "/>
<path class="st21" d="M151.8,372.5"/>
<polyline class="st21" points="180.5,363.5 210.8,363.5 210.8,294.9 180.5,313.9 180.5,363.3 "/>
<polygon class="st21" points="211.3,363.5 243.1,363.5 241.9,270.5 211.8,294.3 "/>
<polyline class="st4" points="434.1,363.5 434,148.7 396.2,107.6 396.2,363.8 "/>
<polyline class="st4" points="434.5,363.5 465,363.5 465.4,178.9 434.3,149.3 "/>
<polyline class="st22" points="465.9,363.5 496.4,363.6 496.7,205.5 465.6,179.4 "/>
<polyline class="st22" points="497.2,363.4 528,363.5 528,229.1 497.1,206.1 "/>
<polyline class="st22" points="528.7,363.2 559.3,363.5 559.2,249.6 528.3,229.4 "/>
<polyline class="st23" points="559.3,363.5 590.4,363.5 590.5,267.5 559.6,250.1 "/>
<polyline class="st23" points="591,363.5 621.9,363.5 621.9,282.6 590.5,267.5 "/>
<polyline class="st23" points="622.4,363.5 653.2,363.4 652.9,295.1 622.4,283.2 "/>
<polyline class="st23" points="653.7,363.5 683.6,363.5 683.9,304.8 653.4,295.4 "/>
<path class="st23" d="M684.5,363.5"/>
<polygon class="st24" points="715.6,311.8 684.1,304.9 684.5,363.5 715.7,363.5 "/>
<polyline class="st24" points="716.1,363.5 746.8,363.4 747.2,316.2 716,312.2 "/>
<polyline class="st24" points="747.7,363.5 778.8,363.5 778.7,317.7 747.4,316.3 "/>
</svg>
